o ETOFHL
v -20.30303031 28.00000000 0.00000000
v -20.30303031 28.00000000 4.63203463
v -5.45454546 28.00000000 4.63203463
v -5.45454546 28.00000000 13.41991342
v -17.74891775 28.00000000 13.41991342
v -17.74891775 28.00000000 17.96536797
v -5.45454546 28.00000000 17.96536797
v -5.45454546 28.00000000 25.36796537
v -19.26406927 28.00000000 25.36796537
v -19.26406927 28.00000000 30.00000000
v -0.00000000 28.00000000 30.00000000
v -0.00000000 28.00000000 0.00000000
v -0.00000000 0.00000000 0.00000000
v -0.00000000 0.00000000 30.00000000
v -19.26406927 0.00000000 30.00000000
v -19.26406927 0.00000000 25.36796537
v -5.45454546 0.00000000 25.36796537
v -5.45454546 0.00000000 17.96536797
v -17.74891775 0.00000000 17.96536797
v -17.74891775 0.00000000 13.41991342
v -5.45454546 0.00000000 13.41991342
v -5.45454546 0.00000000 4.63203463
v -20.30303031 0.00000000 4.63203463
v -20.30303031 0.00000000 0.00000000
v -35.15844156 28.00000000 25.28138528
v -35.15844156 28.00000000 0.00000000
v -40.65627706 28.00000000 0.00000000
v -40.65627706 28.00000000 25.28138528
v -49.87705628 28.00000000 25.28138528
v -49.87705628 28.00000000 30.00000000
v -25.93766234 28.00000000 30.00000000
v -25.93766234 28.00000000 25.28138528
v -25.93766234 0.00000000 25.28138528
v -25.93766234 0.00000000 30.00000000
v -49.87705628 0.00000000 30.00000000
v -49.87705628 0.00000000 25.28138528
v -40.65627706 0.00000000 25.28138528
v -40.65627706 0.00000000 0.00000000
v -35.15844156 0.00000000 0.00000000
v -35.15844156 0.00000000 25.28138528
v -56.31883236 0.00000000 0.00000000
v -84.16413623 0.00000000 0.00000000
v -84.16413623 28.00000000 0.00000000
v -56.31883236 28.00000000 0.00000000
v -84.16413623 0.00000000 30.00000000
v -84.16413623 28.00000000 30.00000000
v -56.31883236 0.00000000 30.00000000
v -56.31883236 28.00000000 30.00000000
v -61.88789314 0.00000000 5.56906077
v -61.88789314 28.00000000 5.56906077
v -78.59507546 28.00000000 5.56906077
v -78.59507546 0.00000000 5.56906077
v -78.59507546 28.00000000 24.43093923
v -78.59507546 0.00000000 24.43093923
v -61.88789314 28.00000000 24.43093923
v -61.88789314 0.00000000 24.43093923
v -56.31883236 0.00000000 5.56906077
v -78.59507546 0.00000000 0.00000000
v -84.16413623 0.00000000 24.43093923
v -61.88789314 0.00000000 30.00000000
v -78.59507546 28.00000000 0.00000000
v -56.31883236 28.00000000 5.56906077
v -84.16413623 28.00000000 24.43093923
v -61.88789314 28.00000000 30.00000000
v -99.09076081 28.00000000 0.00000000
v -99.09076081 28.00000000 13.07359307
v -111.08210280 28.00000000 13.07359307
v -111.08210280 28.00000000 17.70562771
v -99.09076081 28.00000000 17.70562771
v -99.09076081 28.00000000 25.36796537
v -112.59725431 28.00000000 25.36796537
v -112.59725431 28.00000000 30.00000000
v -93.63621535 28.00000000 30.00000000
v -93.63621535 28.00000000 0.00000000
v -93.63621535 0.00000000 0.00000000
v -93.63621535 0.00000000 30.00000000
v -112.59725431 0.00000000 30.00000000
v -112.59725431 0.00000000 25.36796537
v -99.09076081 0.00000000 25.36796537
v -99.09076081 0.00000000 17.70562771
v -111.08210280 0.00000000 17.70562771
v -111.08210280 0.00000000 13.07359307
v -99.09076081 0.00000000 13.07359307
v -99.09076081 0.00000000 0.00000000
v -126.54357466 28.00000000 0.00000000
v -126.54357466 28.00000000 13.29004329
v -139.57387769 28.00000000 13.29004329
v -139.57387769 28.00000000 0.00000000
v -145.02842314 28.00000000 0.00000000
v -145.02842314 28.00000000 30.00000000
v -139.57387769 28.00000000 30.00000000
v -139.57387769 28.00000000 18.00865801
v -126.54357466 28.00000000 18.00865801
v -126.54357466 28.00000000 30.00000000
v -121.08902920 28.00000000 30.00000000
v -121.08902920 28.00000000 0.00000000
v -121.08902920 0.00000000 0.00000000
v -121.08902920 0.00000000 30.00000000
v -126.54357466 0.00000000 30.00000000
v -126.54357466 0.00000000 18.00865801
v -139.57387769 0.00000000 18.00865801
v -139.57387769 0.00000000 30.00000000
v -145.02842314 0.00000000 30.00000000
v -145.02842314 0.00000000 0.00000000
v -139.57387769 0.00000000 0.00000000
v -139.57387769 0.00000000 13.29004329
v -126.54357466 0.00000000 13.29004329
v -126.54357466 0.00000000 0.00000000
v -174.77560929 28.00000000 0.00000000
v -174.77560929 28.00000000 4.71861472
v -161.26911579 28.00000000 4.71861472
v -161.26911579 28.00000000 30.00000000
v -155.81457033 28.00000000 30.00000000
v -155.81457033 28.00000000 0.00000000
v -155.81457033 0.00000000 0.00000000
v -155.81457033 0.00000000 30.00000000
v -161.26911579 0.00000000 30.00000000
v -161.26911579 0.00000000 4.71861472
v -174.77560929 0.00000000 4.71861472
v -174.77560929 0.00000000 0.00000000
f 1 2 3 4 5 6 7 8 9 10 11 12
f 13 14 15 16 17 18 19 20 21 22 23 24
f 24 23 2 1
f 23 22 3 2
f 22 21 4 3
f 21 20 5 4
f 20 19 6 5
f 19 18 7 6
f 18 17 8 7
f 17 16 9 8
f 16 15 10 9
f 15 14 11 10
f 14 13 12 11
f 13 24 1 12
f 25 26 27 28 29 30 31 32
f 33 34 35 36 37 38 39 40
f 40 39 26 25
f 39 38 27 26
f 38 37 28 27
f 37 36 29 28
f 36 35 30 29
f 35 34 31 30
f 34 33 32 31
f 33 40 25 32
f 41 42 43 44
f 42 45 46 43
f 45 47 48 46
f 47 41 44 48
f 49 50 51 52
f 52 51 53 54
f 54 53 55 56
f 56 55 50 49
f 41 57 52 58
f 58 54 59 42
f 56 60 45 59
f 57 47 60 49
f 44 61 51 62
f 61 43 63 53
f 55 63 46 64
f 62 50 64 48
f 65 66 67 68 69 70 71 72 73 74
f 75 76 77 78 79 80 81 82 83 84
f 84 83 66 65
f 83 82 67 66
f 82 81 68 67
f 81 80 69 68
f 80 79 70 69
f 79 78 71 70
f 78 77 72 71
f 77 76 73 72
f 76 75 74 73
f 75 84 65 74
f 85 86 87 88 89 90 91 92 93 94 95 96
f 97 98 99 100 101 102 103 104 105 106 107 108
f 108 107 86 85
f 107 106 87 86
f 106 105 88 87
f 105 104 89 88
f 104 103 90 89
f 103 102 91 90
f 102 101 92 91
f 101 100 93 92
f 100 99 94 93
f 99 98 95 94
f 98 97 96 95
f 97 108 85 96
f 109 110 111 112 113 114
f 115 116 117 118 119 120
f 120 119 110 109
f 119 118 111 110
f 118 117 112 111
f 117 116 113 112
f 116 115 114 113
f 115 120 109 114
