o ITMO
v -5.45454546 28.00000000 0.00000000
v -5.45454546 28.00000000 30.00000000
v -0.00000000 28.00000000 30.00000000
v -0.00000000 28.00000000 0.00000000
v -0.00000000 0.00000000 0.00000000
v -0.00000000 0.00000000 30.00000000
v -5.45454546 0.00000000 30.00000000
v -5.45454546 0.00000000 0.00000000
v -22.43116883 28.00000000 25.28138528
v -22.43116883 28.00000000 0.00000000
v -27.92900433 28.00000000 0.00000000
v -27.92900433 28.00000000 25.28138528
v -37.14978355 28.00000000 25.28138528
v -37.14978355 28.00000000 30.00000000
v -13.21038961 28.00000000 30.00000000
v -13.21038961 28.00000000 25.28138528
v -13.21038961 0.00000000 25.28138528
v -13.21038961 0.00000000 30.00000000
v -37.14978355 0.00000000 30.00000000
v -37.14978355 0.00000000 25.28138528
v -27.92900433 0.00000000 25.28138528
v -27.92900433 0.00000000 0.00000000
v -22.43116883 0.00000000 0.00000000
v -22.43116883 0.00000000 25.28138528
v -49.45108226 28.00000000 0.00000000
v -50.57662338 28.00000000 21.51515152
v -58.41212122 28.00000000 3.98268398
v -62.48138529 28.00000000 3.98268398
v -70.31688312 28.00000000 21.51515152
v -71.44242425 28.00000000 0.00000000
v -76.81038962 28.00000000 0.00000000
v -74.51601732 28.00000000 30.00000000
v -69.58095239 28.00000000 30.00000000
v -60.53333334 28.00000000 10.64935065
v -51.44242425 28.00000000 30.00000000
v -46.37748918 28.00000000 30.00000000
v -44.08311689 28.00000000 0.00000000
v -44.08311689 0.00000000 0.00000000
v -46.37748918 0.00000000 30.00000000
v -51.44242425 0.00000000 30.00000000
v -60.53333334 0.00000000 10.64935065
v -69.58095239 0.00000000 30.00000000
v -74.51601732 0.00000000 30.00000000
v -76.81038962 0.00000000 0.00000000
v -71.44242425 0.00000000 0.00000000
v -70.31688312 0.00000000 21.51515152
v -62.48138529 0.00000000 3.98268398
v -58.41212122 0.00000000 3.98268398
v -50.57662338 0.00000000 21.51515152
v -49.45108226 0.00000000 0.00000000
v -85.45995790 0.00000000 0.00000000
v -113.30526177 0.00000000 0.00000000
v -113.30526177 28.00000000 0.00000000
v -85.45995790 28.00000000 0.00000000
v -113.30526177 0.00000000 30.00000000
v -113.30526177 28.00000000 30.00000000
v -85.45995790 0.00000000 30.00000000
v -85.45995790 28.00000000 30.00000000
v -91.02901868 0.00000000 5.56906077
v -91.02901868 28.00000000 5.56906077
v -107.73620100 28.00000000 5.56906077
v -107.73620100 0.00000000 5.56906077
v -107.73620100 28.00000000 24.43093923
v -107.73620100 0.00000000 24.43093923
v -91.02901868 28.00000000 24.43093923
v -91.02901868 0.00000000 24.43093923
v -85.45995790 0.00000000 5.56906077
v -107.73620100 0.00000000 0.00000000
v -113.30526177 0.00000000 24.43093923
v -91.02901868 0.00000000 30.00000000
v -107.73620100 28.00000000 0.00000000
v -85.45995790 28.00000000 5.56906077
v -113.30526177 28.00000000 24.43093923
v -91.02901868 28.00000000 30.00000000
f 1 2 3 4
f 5 6 7 8
f 8 7 2 1
f 7 6 3 2
f 6 5 4 3
f 5 8 1 4
f 9 10 11 12 13 14 15 16
f 17 18 19 20 21 22 23 24
f 24 23 10 9
f 23 22 11 10
f 22 21 12 11
f 21 20 13 12
f 20 19 14 13
f 19 18 15 14
f 18 17 16 15
f 17 24 9 16
f 25 26 27 28 29 30 31 32 33 34 35 36 37
f 38 39 40 41 42 43 44 45 46 47 48 49 50
f 50 49 26 25
f 49 48 27 26
f 48 47 28 27
f 47 46 29 28
f 46 45 30 29
f 45 44 31 30
f 44 43 32 31
f 43 42 33 32
f 42 41 34 33
f 41 40 35 34
f 40 39 36 35
f 39 38 37 36
f 38 50 25 37
f 51 52 53 54
f 52 55 56 53
f 55 57 58 56
f 57 51 54 58
f 59 60 61 62
f 62 61 63 64
f 64 63 65 66
f 66 65 60 59
f 51 67 62 68
f 68 64 69 52
f 66 70 55 69
f 67 57 70 59
f 54 71 61 72
f 71 53 73 63
f 65 73 56 74
f 72 60 74 58
