# Generated parallelepiped grid scene
# grid_size = 17
# spacing = 40.0
# dropout_probability = 0.2
# vertices = 1856
# faces = 1392

v -330.696314 0.000000 -316.745946
v -329.021032 0.000000 -326.604618
v -309.303686 0.000000 -323.254054
v -310.978968 0.000000 -313.395382
v -330.696314 25.000000 -316.745946
v -329.021032 25.000000 -326.604618
v -309.303686 25.000000 -323.254054
v -310.978968 25.000000 -313.395382
v -327.239246 0.000000 -291.350917
v -317.413994 0.000000 -293.212213
v -312.760754 0.000000 -268.649083
v -322.586006 0.000000 -266.787787
v -327.239246 10.000000 -291.350917
v -317.413994 10.000000 -293.212213
v -312.760754 10.000000 -268.649083
v -322.586006 10.000000 -266.787787
v -319.258719 0.000000 -231.016654
v -328.007211 0.000000 -235.860608
v -320.741281 0.000000 -248.983346
v -311.992789 0.000000 -244.139392
v -319.258719 50.000000 -231.016654
v -328.007211 50.000000 -235.860608
v -320.741281 50.000000 -248.983346
v -311.992789 50.000000 -244.139392
v -312.061965 0.000000 -207.873221
v -318.464245 0.000000 -188.925640
v -327.938035 0.000000 -192.126779
v -321.535755 0.000000 -211.074360
v -312.061965 20.000000 -207.873221
v -318.464245 20.000000 -188.925640
v -327.938035 20.000000 -192.126779
v -321.535755 20.000000 -211.074360
v -330.498049 0.000000 -161.513596
v -318.486404 0.000000 -170.498049
v -309.501951 0.000000 -158.486404
v -321.513596 0.000000 -149.501951
v -330.498049 35.000000 -161.513596
v -318.486404 35.000000 -170.498049
v -309.501951 35.000000 -158.486404
v -321.513596 35.000000 -149.501951
v -314.150220 0.000000 -132.875561
v -307.124439 0.000000 -114.150220
v -325.849780 0.000000 -107.124439
v -332.875561 0.000000 -125.849780
v -314.150220 30.000000 -132.875561
v -307.124439 30.000000 -114.150220
v -325.849780 30.000000 -107.124439
v -332.875561 30.000000 -125.849780
v -311.250101 0.000000 -69.768223
v -320.720264 0.000000 -66.556369
v -328.749899 0.000000 -90.231777
v -319.279736 0.000000 -93.443631
v -311.250101 15.000000 -69.768223
v -320.720264 15.000000 -66.556369
v -328.749899 15.000000 -90.231777
v -319.279736 15.000000 -93.443631
v -331.718068 0.000000 -44.351654
v -312.541354 0.000000 -50.030882
v -308.281932 0.000000 -35.648346
v -327.458646 0.000000 -29.969118
v -331.718068 15.000000 -44.351654
v -312.541354 15.000000 -50.030882
v -308.281932 15.000000 -35.648346
v -327.458646 15.000000 -29.969118
v -322.963188 0.000000 -10.780516
v -309.597675 0.000000 4.097759
v -317.036812 0.000000 10.780516
v -330.402325 0.000000 -4.097759
v -322.963188 25.000000 -10.780516
v -309.597675 25.000000 4.097759
v -317.036812 25.000000 10.780516
v -330.402325 25.000000 -4.097759
v -318.714704 0.000000 55.956128
v -335.849092 0.000000 37.751383
v -321.285296 0.000000 24.043872
v -304.150908 0.000000 42.248617
v -318.714704 20.000000 55.956128
v -335.849092 20.000000 37.751383
v -321.285296 20.000000 24.043872
v -304.150908 20.000000 42.248617
v -309.164856 0.000000 82.756748
v -328.706485 0.000000 87.014066
v -330.835144 0.000000 77.243252
v -311.293515 0.000000 72.985934
v -309.164856 20.000000 82.756748
v -328.706485 20.000000 87.014066
v -330.835144 20.000000 77.243252
v -311.293515 20.000000 72.985934
v -331.650688 0.000000 106.704832
v -306.704832 0.000000 108.349312
v -308.349312 0.000000 133.295168
v -333.295168 0.000000 131.650688
v -331.650688 30.000000 106.704832
v -306.704832 30.000000 108.349312
v -308.349312 30.000000 133.295168
v -333.295168 30.000000 131.650688
v -330.897960 0.000000 166.122456
v -328.928986 0.000000 151.252246
v -309.102040 0.000000 153.877544
v -311.071014 0.000000 168.747754
v -330.897960 10.000000 166.122456
v -328.928986 10.000000 151.252246
v -309.102040 10.000000 153.877544
v -311.071014 10.000000 168.747754
v -325.951785 0.000000 230.535526
v -308.857350 0.000000 240.917256
v -314.048215 0.000000 249.464474
v -331.142650 0.000000 239.082744
v -325.951785 25.000000 230.535526
v -308.857350 25.000000 240.917256
v -314.048215 25.000000 249.464474
v -331.142650 25.000000 239.082744
v -316.647415 0.000000 292.042017
v -332.499060 0.000000 279.846716
v -323.352585 0.000000 267.957983
v -307.500940 0.000000 280.153284
v -316.647415 45.000000 292.042017
v -332.499060 45.000000 279.846716
v -323.352585 45.000000 267.957983
v -307.500940 45.000000 280.153284
v -333.757879 0.000000 324.818792
v -317.777579 0.000000 305.593028
v -306.242121 0.000000 315.181208
v -322.222421 0.000000 334.406972
v -333.757879 30.000000 324.818792
v -317.777579 30.000000 305.593028
v -306.242121 30.000000 315.181208
v -322.222421 30.000000 334.406972
v -283.060323 0.000000 -304.287444
v -296.001101 0.000000 -319.536583
v -276.939677 0.000000 -335.712556
v -263.998899 0.000000 -320.463417
v -283.060323 40.000000 -304.287444
v -296.001101 40.000000 -319.536583
v -276.939677 40.000000 -335.712556
v -263.998899 40.000000 -320.463417
v -267.780666 0.000000 -287.949081
v -267.235831 0.000000 -272.958979
v -292.219334 0.000000 -272.050919
v -292.764169 0.000000 -287.041021
v -267.780666 15.000000 -287.949081
v -267.235831 15.000000 -272.958979
v -292.219334 15.000000 -272.050919
v -292.764169 15.000000 -287.041021
v -269.564083 0.000000 -238.104837
v -281.895163 0.000000 -229.564083
v -290.435917 0.000000 -241.895163
v -278.104837 0.000000 -250.435917
v -269.564083 40.000000 -238.104837
v -281.895163 40.000000 -229.564083
v -290.435917 40.000000 -241.895163
v -278.104837 40.000000 -250.435917
v -280.341076 0.000000 -216.004177
v -264.311299 0.000000 -196.819645
v -279.658924 0.000000 -183.995823
v -295.688701 0.000000 -203.180355
v -280.341076 50.000000 -216.004177
v -264.311299 50.000000 -196.819645
v -279.658924 50.000000 -183.995823
v -295.688701 50.000000 -203.180355
v -286.929511 0.000000 -107.671907
v -292.328093 0.000000 -126.929511
v -273.070489 0.000000 -132.328093
v -267.671907 0.000000 -113.070489
v -286.929511 15.000000 -107.671907
v -292.328093 15.000000 -126.929511
v -273.070489 15.000000 -132.328093
v -267.671907 15.000000 -113.070489
v -284.616994 0.000000 -11.616082
v -267.555803 0.000000 -1.179812
v -275.383006 0.000000 11.616082
v -292.444197 0.000000 1.179812
v -284.616994 50.000000 -11.616082
v -267.555803 50.000000 -1.179812
v -275.383006 50.000000 11.616082
v -292.444197 50.000000 1.179812
v -278.316722 0.000000 52.386144
v -292.362017 0.000000 38.147826
v -281.683278 0.000000 27.613856
v -267.637983 0.000000 41.852174
v -278.316722 20.000000 52.386144
v -292.362017 20.000000 38.147826
v -281.683278 20.000000 27.613856
v -267.637983 20.000000 41.852174
v -286.183315 0.000000 110.685140
v -276.258101 0.000000 109.464432
v -273.816685 0.000000 129.314860
v -283.741899 0.000000 130.535568
v -286.183315 45.000000 110.685140
v -276.258101 45.000000 109.464432
v -273.816685 45.000000 129.314860
v -283.741899 45.000000 130.535568
v -288.060908 0.000000 169.553626
v -286.914427 0.000000 149.586513
v -271.939092 0.000000 150.446374
v -273.085573 0.000000 170.413487
v -288.060908 10.000000 169.553626
v -286.914427 10.000000 149.586513
v -271.939092 10.000000 150.446374
v -273.085573 10.000000 170.413487
v -277.439289 0.000000 193.408888
v -273.408888 0.000000 202.560711
v -282.560711 0.000000 206.591112
v -286.591112 0.000000 197.439289
v -277.439289 45.000000 193.408888
v -273.408888 45.000000 202.560711
v -282.560711 45.000000 206.591112
v -286.591112 45.000000 197.439289
v -284.627241 0.000000 230.455963
v -270.455963 0.000000 235.372759
v -275.372759 0.000000 249.544037
v -289.544037 0.000000 244.627241
v -284.627241 45.000000 230.455963
v -270.455963 45.000000 235.372759
v -275.372759 45.000000 249.544037
v -289.544037 45.000000 244.627241
v -272.917556 0.000000 307.258768
v -272.090652 0.000000 332.245089
v -287.082444 0.000000 332.741232
v -287.909348 0.000000 307.754911
v -272.917556 50.000000 307.258768
v -272.090652 50.000000 332.245089
v -287.082444 50.000000 332.741232
v -287.909348 50.000000 307.754911
v -235.486808 0.000000 -304.641579
v -253.993125 0.000000 -312.225525
v -244.513192 0.000000 -335.358421
v -226.006875 0.000000 -327.774475
v -235.486808 35.000000 -304.641579
v -253.993125 35.000000 -312.225525
v -244.513192 35.000000 -335.358421
v -226.006875 35.000000 -327.774475
v -247.537266 0.000000 -284.943644
v -238.335585 0.000000 -288.858878
v -232.462734 0.000000 -275.056356
v -241.664415 0.000000 -271.141122
v -247.537266 25.000000 -284.943644
v -238.335585 25.000000 -288.858878
v -232.462734 25.000000 -275.056356
v -241.664415 25.000000 -271.141122
v -233.210852 0.000000 -205.929373
v -237.137944 0.000000 -191.452566
v -246.789148 0.000000 -194.070627
v -242.862056 0.000000 -208.547434
v -233.210852 15.000000 -205.929373
v -237.137944 15.000000 -191.452566
v -246.789148 15.000000 -194.070627
v -242.862056 15.000000 -208.547434
v -251.419749 0.000000 -34.916759
v -248.077441 0.000000 -49.539651
v -228.580251 0.000000 -45.083241
v -231.922559 0.000000 -30.460349
v -251.419749 45.000000 -34.916759
v -248.077441 45.000000 -49.539651
v -228.580251 45.000000 -45.083241
v -231.922559 45.000000 -30.460349
v -237.402335 0.000000 25.655937
v -228.565905 0.000000 49.042205
v -242.597665 0.000000 54.344063
v -251.434095 0.000000 30.957795
v -237.402335 45.000000 25.655937
v -228.565905 45.000000 49.042205
v -242.597665 45.000000 54.344063
v -251.434095 45.000000 30.957795
v -238.761091 0.000000 142.365797
v -222.365797 0.000000 161.238909
v -241.238909 0.000000 177.634203
v -257.634203 0.000000 158.761091
v -238.761091 45.000000 142.365797
v -222.365797 45.000000 161.238909
v -241.238909 45.000000 177.634203
v -257.634203 45.000000 158.761091
v -234.364468 0.000000 235.729078
v -235.729078 0.000000 245.635532
v -245.635532 0.000000 244.270922
v -244.270922 0.000000 234.364468
v -234.364468 40.000000 235.729078
v -235.729078 40.000000 245.635532
v -245.635532 40.000000 244.270922
v -244.270922 40.000000 234.364468
v -248.811461 0.000000 281.899516
v -245.142423 0.000000 272.596927
v -231.188539 0.000000 278.100484
v -234.857577 0.000000 287.403073
v -248.811461 25.000000 281.899516
v -245.142423 25.000000 272.596927
v -231.188539 25.000000 278.100484
v -234.857577 25.000000 287.403073
v -229.588003 0.000000 330.202466
v -253.901940 0.000000 324.385895
v -250.411997 0.000000 309.797534
v -226.098060 0.000000 315.614105
v -229.588003 30.000000 330.202466
v -253.901940 30.000000 324.385895
v -250.411997 30.000000 309.797534
v -226.098060 30.000000 315.614105
v -211.297157 0.000000 -327.322857
v -203.130454 0.000000 -333.093902
v -188.702843 0.000000 -312.677143
v -196.869546 0.000000 -306.906098
v -211.297157 50.000000 -327.322857
v -203.130454 50.000000 -333.093902
v -188.702843 50.000000 -312.677143
v -196.869546 50.000000 -306.906098
v -206.834199 0.000000 -278.185136
v -201.814864 0.000000 -286.834199
v -193.165801 0.000000 -281.814864
v -198.185136 0.000000 -273.165801
v -206.834199 25.000000 -278.185136
v -201.814864 25.000000 -286.834199
v -193.165801 25.000000 -281.814864
v -198.185136 25.000000 -273.165801
v -214.577259 0.000000 -239.940689
v -206.912220 0.000000 -252.834376
v -185.422741 0.000000 -240.059311
v -193.087780 0.000000 -227.165624
v -214.577259 10.000000 -239.940689
v -206.912220 10.000000 -252.834376
v -185.422741 10.000000 -240.059311
v -193.087780 10.000000 -227.165624
v -186.441383 0.000000 -168.509636
v -194.674198 0.000000 -144.904112
v -213.558617 0.000000 -151.490364
v -205.325802 0.000000 -175.095888
v -186.441383 40.000000 -168.509636
v -194.674198 40.000000 -144.904112
v -213.558617 40.000000 -151.490364
v -205.325802 40.000000 -175.095888
v -203.563343 0.000000 -105.864846
v -210.795327 0.000000 -129.795964
v -196.436657 0.000000 -134.135154
v -189.204673 0.000000 -110.204036
v -203.563343 25.000000 -105.864846
v -210.795327 25.000000 -129.795964
v -196.436657 25.000000 -134.135154
v -189.204673 25.000000 -110.204036
v -207.852573 0.000000 -87.958461
v -198.344775 0.000000 -91.057135
v -192.147427 0.000000 -72.041539
v -201.655225 0.000000 -68.942865
v -207.852573 10.000000 -87.958461
v -198.344775 10.000000 -91.057135
v -192.147427 10.000000 -72.041539
v -201.655225 10.000000 -68.942865
v -208.981604 0.000000 -40.762091
v -195.842068 0.000000 -47.997600
v -191.018396 0.000000 -39.237909
v -204.157932 0.000000 -32.002400
v -208.981604 50.000000 -40.762091
v -195.842068 50.000000 -47.997600
v -191.018396 50.000000 -39.237909
v -204.157932 50.000000 -32.002400
v -202.515890 0.000000 25.641369
v -188.514568 0.000000 31.023094
v -197.484110 0.000000 54.358631
v -211.485432 0.000000 48.976906
v -202.515890 15.000000 25.641369
v -188.514568 15.000000 31.023094
v -197.484110 15.000000 54.358631
v -211.485432 15.000000 48.976906
v -193.074709 0.000000 78.571596
v -198.571596 0.000000 86.925291
v -206.925291 0.000000 81.428404
v -201.428404 0.000000 73.074709
v -193.074709 40.000000 78.571596
v -198.571596 40.000000 86.925291
v -206.925291 40.000000 81.428404
v -201.428404 40.000000 73.074709
v -186.412623 0.000000 116.077858
v -196.077858 0.000000 133.587377
v -213.587377 0.000000 123.922142
v -203.922142 0.000000 106.412623
v -186.412623 25.000000 116.077858
v -196.077858 25.000000 133.587377
v -213.587377 25.000000 123.922142
v -203.922142 25.000000 106.412623
v -184.258630 0.000000 157.091520
v -193.707036 0.000000 174.718988
v -215.741370 0.000000 162.908480
v -206.292964 0.000000 145.281012
v -184.258630 20.000000 157.091520
v -193.707036 20.000000 174.718988
v -215.741370 20.000000 162.908480
v -206.292964 20.000000 145.281012
v -191.637066 0.000000 207.420332
v -210.954026 0.000000 202.238148
v -208.362934 0.000000 192.579668
v -189.045974 0.000000 197.761852
v -191.637066 10.000000 207.420332
v -210.954026 10.000000 202.238148
v -208.362934 10.000000 192.579668
v -189.045974 10.000000 197.761852
v -206.013836 0.000000 243.719378
v -203.719378 0.000000 233.986164
v -193.986164 0.000000 236.280622
v -196.280622 0.000000 246.013836
v -206.013836 50.000000 243.719378
v -203.719378 50.000000 233.986164
v -193.986164 50.000000 236.280622
v -196.280622 50.000000 246.013836
v -196.831217 0.000000 290.721885
v -210.478778 0.000000 276.101896
v -203.168783 0.000000 269.278115
v -189.521222 0.000000 283.898104
v -196.831217 25.000000 290.721885
v -210.478778 25.000000 276.101896
v -203.168783 25.000000 269.278115
v -189.521222 25.000000 283.898104
v -161.708255 0.000000 -308.950934
v -167.814300 0.000000 -327.996043
v -158.291745 0.000000 -331.049066
v -152.185700 0.000000 -312.003957
v -161.708255 50.000000 -308.950934
v -167.814300 50.000000 -327.996043
v -158.291745 50.000000 -331.049066
v -152.185700 50.000000 -312.003957
v -159.382072 0.000000 -292.484717
v -147.841652 0.000000 -282.902510
v -160.617928 0.000000 -267.515283
v -172.158348 0.000000 -277.097490
v -159.382072 15.000000 -292.484717
v -147.841652 15.000000 -282.902510
v -160.617928 15.000000 -267.515283
v -172.158348 15.000000 -277.097490
v -147.948307 0.000000 -236.682365
v -159.810456 0.000000 -227.501437
v -172.051693 0.000000 -243.317635
v -160.189544 0.000000 -252.498563
v -147.948307 30.000000 -236.682365
v -159.810456 30.000000 -227.501437
v -172.051693 30.000000 -243.317635
v -160.189544 30.000000 -252.498563
v -153.239404 0.000000 -189.485993
v -168.200479 0.000000 -190.565906
v -166.760596 0.000000 -210.514007
v -151.799521 0.000000 -209.434094
v -153.239404 50.000000 -189.485993
v -168.200479 50.000000 -190.565906
v -166.760596 50.000000 -210.514007
v -151.799521 50.000000 -209.434094
v -157.999438 0.000000 -166.782164
v -153.217836 0.000000 -157.999438
v -162.000562 0.000000 -153.217836
v -166.782164 0.000000 -162.000562
v -157.999438 40.000000 -166.782164
v -153.217836 40.000000 -157.999438
v -162.000562 40.000000 -153.217836
v -166.782164 40.000000 -162.000562
v -149.602150 0.000000 -86.937919
v -150.428200 0.000000 -71.960682
v -170.397850 0.000000 -73.062081
v -169.571800 0.000000 -88.039318
v -149.602150 20.000000 -86.937919
v -150.428200 20.000000 -71.960682
v -170.397850 20.000000 -73.062081
v -169.571800 20.000000 -88.039318
v -173.405649 0.000000 -38.759610
v -151.147903 0.000000 -50.143489
v -146.594351 0.000000 -41.240390
v -168.852097 0.000000 -29.856511
v -173.405649 15.000000 -38.759610
v -151.147903 15.000000 -50.143489
v -146.594351 15.000000 -41.240390
v -168.852097 15.000000 -29.856511
v -151.007933 0.000000 0.626677
v -164.036959 0.000000 8.059340
v -168.992067 0.000000 -0.626677
v -155.963041 0.000000 -8.059340
v -151.007933 35.000000 0.626677
v -164.036959 35.000000 8.059340
v -168.992067 35.000000 -0.626677
v -155.963041 35.000000 -8.059340
v -148.827234 0.000000 119.588544
v -152.967176 0.000000 128.691340
v -171.172766 0.000000 120.411456
v -167.032824 0.000000 111.308660
v -148.827234 25.000000 119.588544
v -152.967176 25.000000 128.691340
v -171.172766 25.000000 120.411456
v -167.032824 25.000000 111.308660
v -163.310386 0.000000 144.338220
v -145.446885 0.000000 153.332403
v -156.689614 0.000000 175.661780
v -174.553115 0.000000 166.667597
v -163.310386 20.000000 144.338220
v -145.446885 20.000000 153.332403
v -156.689614 20.000000 175.661780
v -174.553115 20.000000 166.667597
v -168.572545 0.000000 193.754083
v -153.754083 0.000000 191.427455
v -151.427455 0.000000 206.245917
v -166.245917 0.000000 208.572545
v -168.572545 40.000000 193.754083
v -153.754083 40.000000 191.427455
v -151.427455 40.000000 206.245917
v -166.245917 40.000000 208.572545
v -171.376405 0.000000 251.261768
v -173.484350 0.000000 231.373164
v -148.623595 0.000000 228.738232
v -146.515650 0.000000 248.626836
v -171.376405 25.000000 251.261768
v -173.484350 25.000000 231.373164
v -148.623595 25.000000 228.738232
v -146.515650 25.000000 248.626836
v -153.451479 0.000000 268.237055
v -147.145592 0.000000 275.998227
v -166.548521 0.000000 291.762945
v -172.854408 0.000000 284.001773
v -153.451479 10.000000 268.237055
v -147.145592 10.000000 275.998227
v -166.548521 10.000000 291.762945
v -172.854408 10.000000 284.001773
v -156.326459 0.000000 304.419400
v -145.605802 0.000000 327.004074
v -163.673541 0.000000 335.580600
v -174.394198 0.000000 312.995926
v -156.326459 30.000000 304.419400
v -145.605802 30.000000 327.004074
v -163.673541 30.000000 335.580600
v -174.394198 30.000000 312.995926
v -116.952922 0.000000 -311.516763
v -129.002634 0.000000 -320.450096
v -123.047078 0.000000 -328.483237
v -110.997366 0.000000 -319.549904
v -116.952922 25.000000 -311.516763
v -129.002634 25.000000 -320.450096
v -123.047078 25.000000 -328.483237
v -110.997366 25.000000 -319.549904
v -109.084743 0.000000 -277.579841
v -115.386973 0.000000 -269.815699
v -130.915257 0.000000 -282.420159
v -124.613027 0.000000 -290.184301
v -109.084743 35.000000 -277.579841
v -115.386973 35.000000 -269.815699
v -130.915257 35.000000 -282.420159
v -124.613027 35.000000 -290.184301
v -123.671087 0.000000 -250.560451
v -109.348987 0.000000 -236.600599
v -116.328913 0.000000 -229.439549
v -130.651013 0.000000 -243.399401
v -123.671087 15.000000 -250.560451
v -109.348987 15.000000 -236.600599
v -116.328913 15.000000 -229.439549
v -130.651013 15.000000 -243.399401
v -108.933982 0.000000 -201.594756
v -125.363806 0.000000 -190.190332
v -131.066018 0.000000 -198.405244
v -114.636194 0.000000 -209.809668
v -108.933982 15.000000 -201.594756
v -125.363806 15.000000 -190.190332
v -131.066018 15.000000 -198.405244
v -114.636194 15.000000 -209.809668
v -135.778591 0.000000 -162.699269
v -120.830160 0.000000 -175.986270
v -104.221409 0.000000 -157.300731
v -119.169840 0.000000 -144.013730
v -135.778591 50.000000 -162.699269
v -120.830160 50.000000 -175.986270
v -104.221409 50.000000 -157.300731
v -119.169840 50.000000 -144.013730
v -108.412868 0.000000 -124.689176
v -112.253994 0.000000 -110.189323
v -131.587132 0.000000 -115.310824
v -127.746006 0.000000 -129.810677
v -108.412868 10.000000 -124.689176
v -112.253994 10.000000 -110.189323
v -131.587132 10.000000 -115.310824
v -127.746006 10.000000 -129.810677
v -131.043032 0.000000 -45.856743
v -117.469576 0.000000 -52.241199
v -108.956968 0.000000 -34.143257
v -122.530424 0.000000 -27.758801
v -131.043032 40.000000 -45.856743
v -117.469576 40.000000 -52.241199
v -108.956968 40.000000 -34.143257
v -122.530424 40.000000 -27.758801
v -108.291055 0.000000 -7.930990
v -112.069010 0.000000 11.708945
v -131.708945 0.000000 7.930990
v -127.930990 0.000000 -11.708945
v -108.291055 15.000000 -7.930990
v -112.069010 15.000000 11.708945
v -131.708945 15.000000 7.930990
v -127.930990 15.000000 -11.708945
v -119.016068 0.000000 55.977543
v -135.371862 0.000000 44.467199
v -120.983932 0.000000 24.022457
v -104.628138 0.000000 35.532801
v -119.016068 35.000000 55.977543
v -135.371862 35.000000 44.467199
v -120.983932 35.000000 24.022457
v -104.628138 35.000000 35.532801
v -109.725456 0.000000 77.366801
v -117.366801 0.000000 90.274544
v -130.274544 0.000000 82.633199
v -122.633199 0.000000 69.725456
v -109.725456 40.000000 77.366801
v -117.366801 40.000000 90.274544
v -130.274544 40.000000 82.633199
v -122.633199 40.000000 69.725456
v -109.870989 0.000000 127.324830
v -124.195714 0.000000 131.774803
v -130.129011 0.000000 112.675170
v -115.804286 0.000000 108.225197
v -109.870989 40.000000 127.324830
v -124.195714 40.000000 131.774803
v -130.129011 40.000000 112.675170
v -115.804286 40.000000 108.225197
v -111.903566 0.000000 213.809336
v -135.249789 0.000000 204.867642
v -128.096434 0.000000 186.190664
v -104.750211 0.000000 195.132358
v -111.903566 45.000000 213.809336
v -135.249789 45.000000 204.867642
v -128.096434 45.000000 186.190664
v -104.750211 45.000000 195.132358
v -124.697946 0.000000 253.799612
v -129.965330 0.000000 229.360818
v -115.302054 0.000000 226.200388
v -110.034670 0.000000 250.639182
v -124.697946 15.000000 253.799612
v -129.965330 15.000000 229.360818
v -115.302054 15.000000 226.200388
v -110.034670 15.000000 250.639182
v -110.913961 0.000000 273.485102
v -120.239705 0.000000 291.177770
v -129.086039 0.000000 286.514898
v -119.760295 0.000000 268.822230
v -110.913961 25.000000 273.485102
v -120.239705 25.000000 291.177770
v -129.086039 25.000000 286.514898
v -119.760295 25.000000 268.822230
v -129.333332 0.000000 314.961260
v -114.961260 0.000000 310.666668
v -110.666668 0.000000 325.038740
v -125.038740 0.000000 329.333332
v -129.333332 10.000000 314.961260
v -114.961260 10.000000 310.666668
v -110.666668 10.000000 325.038740
v -125.038740 10.000000 329.333332
v -75.574871 0.000000 -332.714882
v -68.026712 0.000000 -326.155515
v -84.425129 0.000000 -307.285118
v -91.973288 0.000000 -313.844485
v -75.574871 40.000000 -332.714882
v -68.026712 40.000000 -326.155515
v -84.425129 40.000000 -307.285118
v -91.973288 40.000000 -313.844485
v -92.963421 0.000000 -267.981276
v -92.018724 0.000000 -292.963421
v -67.036579 0.000000 -292.018724
v -67.981276 0.000000 -267.036579
v -92.963421 40.000000 -267.981276
v -92.018724 40.000000 -292.963421
v -67.036579 40.000000 -292.018724
v -67.981276 40.000000 -267.036579
v -85.877127 0.000000 -236.068159
v -83.931841 0.000000 -245.877127
v -74.122873 0.000000 -243.931841
v -76.068159 0.000000 -234.122873
v -85.877127 40.000000 -236.068159
v -83.931841 40.000000 -245.877127
v -74.122873 40.000000 -243.931841
v -76.068159 40.000000 -234.122873
v -85.062903 0.000000 -187.525345
v -84.936970 0.000000 -212.525028
v -74.937097 0.000000 -212.474655
v -75.063030 0.000000 -187.474972
v -85.062903 50.000000 -187.525345
v -84.936970 50.000000 -212.525028
v -74.937097 50.000000 -212.474655
v -75.063030 50.000000 -187.474972
v -67.295520 0.000000 -167.148160
v -79.671379 0.000000 -145.426325
v -92.704480 0.000000 -152.851840
v -80.328621 0.000000 -174.573675
v -67.295520 45.000000 -167.148160
v -79.671379 45.000000 -145.426325
v -92.704480 45.000000 -152.851840
v -80.328621 45.000000 -174.573675
v -76.593540 0.000000 -104.358835
v -94.511913 0.000000 -113.243198
v -83.406460 0.000000 -135.641165
v -65.488087 0.000000 -126.756802
v -76.593540 50.000000 -104.358835
v -94.511913 50.000000 -113.243198
v -83.406460 50.000000 -135.641165
v -65.488087 50.000000 -126.756802
v -70.424603 0.000000 -69.008560
v -94.204399 0.000000 -76.723562
v -89.575397 0.000000 -90.991440
v -65.795601 0.000000 -83.276438
v -70.424603 45.000000 -69.008560
v -94.204399 45.000000 -76.723562
v -89.575397 45.000000 -90.991440
v -65.795601 45.000000 -83.276438
v -90.811653 0.000000 -28.194994
v -93.890369 0.000000 -47.956611
v -69.188347 0.000000 -51.805006
v -66.109631 0.000000 -32.043389
v -90.811653 25.000000 -28.194994
v -93.890369 25.000000 -47.956611
v -69.188347 25.000000 -51.805006
v -66.109631 25.000000 -32.043389
v -81.598399 0.000000 25.948483
v -65.948483 0.000000 38.401601
v -78.401601 0.000000 54.051517
v -94.051517 0.000000 41.598399
v -81.598399 35.000000 25.948483
v -65.948483 35.000000 38.401601
v -78.401601 35.000000 54.051517
v -94.051517 35.000000 41.598399
v -77.370774 0.000000 170.275562
v -90.275562 0.000000 162.629226
v -82.629226 0.000000 149.724438
v -69.724438 0.000000 157.370774
v -77.370774 15.000000 170.275562
v -90.275562 15.000000 162.629226
v -82.629226 15.000000 149.724438
v -69.724438 15.000000 157.370774
v -95.391876 0.000000 208.694260
v -88.694260 0.000000 184.608124
v -64.608124 0.000000 191.305740
v -71.305740 0.000000 215.391876
v -95.391876 10.000000 208.694260
v -88.694260 10.000000 184.608124
v -64.608124 10.000000 191.305740
v -71.305740 10.000000 215.391876
v -85.459541 0.000000 227.693765
v -75.466402 0.000000 227.323388
v -74.540459 0.000000 252.306235
v -84.533598 0.000000 252.676612
v -85.459541 45.000000 227.693765
v -75.466402 45.000000 227.323388
v -74.540459 45.000000 252.306235
v -84.533598 45.000000 252.676612
v -67.306412 0.000000 267.696634
v -67.696634 0.000000 292.693588
v -92.693588 0.000000 292.303366
v -92.303366 0.000000 267.306412
v -67.306412 50.000000 267.696634
v -67.696634 50.000000 292.693588
v -92.693588 50.000000 292.303366
v -92.303366 50.000000 267.306412
v -91.293368 0.000000 329.217366
v -93.447496 0.000000 314.372848
v -68.706632 0.000000 310.782634
v -66.552504 0.000000 325.627152
v -91.293368 25.000000 329.217366
v -93.447496 25.000000 314.372848
v -68.706632 25.000000 310.782634
v -66.552504 25.000000 325.627152
v -28.112386 0.000000 -330.720757
v -32.150201 0.000000 -306.048991
v -51.887614 0.000000 -309.279243
v -47.849799 0.000000 -333.951009
v -28.112386 40.000000 -330.720757
v -32.150201 40.000000 -306.048991
v -51.887614 40.000000 -309.279243
v -47.849799 40.000000 -333.951009
v -30.986630 0.000000 -279.904245
v -43.555070 0.000000 -271.716795
v -49.013370 0.000000 -280.095755
v -36.444930 0.000000 -288.283205
v -30.986630 40.000000 -279.904245
v -43.555070 40.000000 -271.716795
v -49.013370 40.000000 -280.095755
v -36.444930 40.000000 -288.283205
v -34.070365 0.000000 -252.086746
v -27.370439 0.000000 -244.663067
v -45.929635 0.000000 -227.913254
v -52.629561 0.000000 -235.336933
v -34.070365 20.000000 -252.086746
v -27.370439 20.000000 -244.663067
v -45.929635 20.000000 -227.913254
v -52.629561 20.000000 -235.336933
v -41.999679 0.000000 -147.660985
v -51.285544 0.000000 -165.374616
v -38.000321 0.000000 -172.339015
v -28.714456 0.000000 -154.625384
v -41.999679 45.000000 -147.660985
v -51.285544 45.000000 -165.374616
v -38.000321 45.000000 -172.339015
v -28.714456 45.000000 -154.625384
v -49.820582 0.000000 -107.358553
v -50.177381 0.000000 -132.356007
v -30.179418 0.000000 -132.641447
v -29.822619 0.000000 -107.643993
v -49.820582 40.000000 -107.358553
v -50.177381 40.000000 -132.356007
v -30.179418 40.000000 -132.641447
v -29.822619 40.000000 -107.643993
v -34.593813 0.000000 -11.270455
v -30.694096 0.000000 8.345667
v -45.406187 0.000000 11.270455
v -49.305904 0.000000 -8.345667
v -34.593813 15.000000 -11.270455
v -30.694096 15.000000 8.345667
v -45.406187 15.000000 11.270455
v -49.305904 15.000000 -8.345667
v -36.306791 0.000000 31.777458
v -30.989496 0.000000 40.246600
v -43.693209 0.000000 48.222542
v -49.010504 0.000000 39.753400
v -36.306791 25.000000 31.777458
v -30.989496 25.000000 40.246600
v -43.693209 25.000000 48.222542
v -49.010504 25.000000 39.753400
v -29.804545 0.000000 77.075502
v -37.075502 0.000000 90.195455
v -50.195455 0.000000 82.924498
v -42.924498 0.000000 69.804545
v -29.804545 45.000000 77.075502
v -37.075502 45.000000 90.195455
v -50.195455 45.000000 82.924498
v -42.924498 45.000000 69.804545
v -28.365198 0.000000 111.217552
v -26.775581 0.000000 126.133085
v -51.634802 0.000000 128.782448
v -53.224419 0.000000 113.866915
v -28.365198 30.000000 111.217552
v -26.775581 30.000000 126.133085
v -51.634802 30.000000 128.782448
v -53.224419 30.000000 113.866915
v -48.601670 0.000000 197.305326
v -40.820943 0.000000 191.023584
v -31.398330 0.000000 202.694674
v -39.179057 0.000000 208.976416
v -48.601670 30.000000 197.305326
v -40.820943 30.000000 191.023584
v -31.398330 30.000000 202.694674
v -39.179057 30.000000 208.976416
v -56.846335 0.000000 274.642670
v -34.642670 0.000000 263.153665
v -23.153665 0.000000 285.357330
v -45.357330 0.000000 296.846335
v -56.846335 25.000000 274.642670
v -34.642670 25.000000 263.153665
v -23.153665 25.000000 285.357330
v -45.357330 25.000000 296.846335
v -40.379898 0.000000 310.994131
v -31.540775 0.000000 323.113121
v -39.620102 0.000000 329.005869
v -48.459225 0.000000 316.886879
v -40.379898 30.000000 310.994131
v -31.540775 30.000000 323.113121
v -39.620102 30.000000 329.005869
v -48.459225 30.000000 316.886879
v 5.916026 0.000000 -316.126934
v -3.873066 0.000000 -314.083974
v -5.916026 0.000000 -323.873066
v 3.873066 0.000000 -325.916026
v 5.916026 35.000000 -316.126934
v -3.873066 35.000000 -314.083974
v -5.916026 35.000000 -323.873066
v 3.873066 35.000000 -325.916026
v 5.177684 0.000000 -289.909167
v 11.033944 0.000000 -281.803353
v -5.177684 0.000000 -270.090833
v -11.033944 0.000000 -278.196647
v 5.177684 10.000000 -289.909167
v 11.033944 10.000000 -281.803353
v -5.177684 10.000000 -270.090833
v -11.033944 10.000000 -278.196647
v 12.699464 0.000000 -235.530814
v 6.113966 0.000000 -228.005442
v -12.699464 0.000000 -244.469186
v -6.113966 0.000000 -251.994558
v 12.699464 35.000000 -235.530814
v 6.113966 35.000000 -228.005442
v -12.699464 35.000000 -244.469186
v -6.113966 35.000000 -251.994558
v 13.197574 0.000000 -206.190642
v 11.672954 0.000000 -191.268326
v -13.197574 0.000000 -193.809358
v -11.672954 0.000000 -208.731674
v 13.197574 20.000000 -206.190642
v 11.672954 20.000000 -191.268326
v -13.197574 20.000000 -193.809358
v -11.672954 20.000000 -208.731674
v 4.268915 0.000000 -144.571897
v -14.114729 0.000000 -152.448548
v -4.268915 0.000000 -175.428103
v 14.114729 0.000000 -167.551452
v 4.268915 45.000000 -144.571897
v -14.114729 45.000000 -152.448548
v -4.268915 45.000000 -175.428103
v 14.114729 45.000000 -167.551452
v 3.883111 0.000000 -133.598583
v 13.598583 0.000000 -116.116889
v -3.883111 0.000000 -106.401417
v -13.598583 0.000000 -123.883111
v 3.883111 25.000000 -133.598583
v 13.598583 25.000000 -116.116889
v -3.883111 25.000000 -106.401417
v -13.598583 25.000000 -123.883111
v -6.828713 0.000000 -27.120999
v -14.577337 0.000000 -39.964628
v 6.828713 0.000000 -52.879001
v 14.577337 0.000000 -40.035372
v -6.828713 40.000000 -27.120999
v -14.577337 40.000000 -39.964628
v 6.828713 40.000000 -52.879001
v 14.577337 40.000000 -40.035372
v -9.646244 0.000000 7.949841
v -4.930899 0.000000 -11.486350
v 9.646244 0.000000 -7.949841
v 4.930899 0.000000 11.486350
v -9.646244 45.000000 7.949841
v -4.930899 45.000000 -11.486350
v 9.646244 45.000000 -7.949841
v 4.930899 45.000000 11.486350
v 12.825956 0.000000 45.957755
v -5.957755 0.000000 52.825956
v -12.825956 0.000000 34.042245
v 5.957755 0.000000 27.174044
v 12.825956 30.000000 45.957755
v -5.957755 30.000000 52.825956
v -12.825956 30.000000 34.042245
v 5.957755 30.000000 27.174044
v 6.313779 0.000000 73.566790
v 3.509972 0.000000 88.302415
v -6.313779 0.000000 86.433210
v -3.509972 0.000000 71.697585
v 6.313779 25.000000 73.566790
v 3.509972 25.000000 88.302415
v -6.313779 25.000000 86.433210
v -3.509972 25.000000 71.697585
v 3.107064 0.000000 134.242407
v -11.104682 0.000000 129.443836
v -3.107064 0.000000 105.757593
v 11.104682 0.000000 110.556164
v 3.107064 45.000000 134.242407
v -11.104682 45.000000 129.443836
v -3.107064 45.000000 105.757593
v 11.104682 45.000000 110.556164
v 12.863667 0.000000 193.142444
v -0.002706 0.000000 214.577379
v -12.863667 0.000000 206.857556
v 0.002706 0.000000 185.422621
v 12.863667 30.000000 193.142444
v -0.002706 30.000000 214.577379
v -12.863667 30.000000 206.857556
v 0.002706 30.000000 185.422621
v -6.062712 0.000000 254.815314
v -15.784804 0.000000 237.337301
v 6.062712 0.000000 225.184686
v 15.784804 0.000000 242.662699
v -6.062712 50.000000 254.815314
v -15.784804 50.000000 237.337301
v 6.062712 50.000000 225.184686
v 15.784804 50.000000 242.662699
v -11.145113 0.000000 288.705542
v -8.705542 0.000000 268.854887
v 11.145113 0.000000 271.294458
v 8.705542 0.000000 291.145113
v -11.145113 30.000000 288.705542
v -8.705542 30.000000 268.854887
v 11.145113 30.000000 271.294458
v 8.705542 30.000000 291.145113
v -8.008618 0.000000 312.198587
v 11.046301 0.000000 318.273954
v 8.008618 0.000000 327.801413
v -11.046301 0.000000 321.726046
v -8.008618 50.000000 312.198587
v 11.046301 50.000000 318.273954
v 8.008618 50.000000 327.801413
v -11.046301 50.000000 321.726046
v 33.846725 0.000000 -311.360717
v 31.360717 0.000000 -326.153275
v 46.153275 0.000000 -328.639283
v 48.639283 0.000000 -313.846725
v 33.846725 45.000000 -311.360717
v 31.360717 45.000000 -326.153275
v 46.153275 45.000000 -328.639283
v 48.639283 45.000000 -313.846725
v 38.074636 0.000000 -268.986691
v 32.344571 0.000000 -288.148276
v 41.925364 0.000000 -291.013309
v 47.655429 0.000000 -271.851724
v 38.074636 25.000000 -268.986691
v 32.344571 25.000000 -288.148276
v 41.925364 25.000000 -291.013309
v 47.655429 25.000000 -271.851724
v 29.429087 0.000000 -236.359149
v 43.429867 0.000000 -250.641241
v 50.570913 0.000000 -243.640851
v 36.570133 0.000000 -229.358759
v 29.429087 50.000000 -236.359149
v 43.429867 50.000000 -250.641241
v 50.570913 50.000000 -243.640851
v 36.570133 50.000000 -229.358759
v 43.737783 0.000000 -134.090031
v 54.191337 0.000000 -123.332559
v 36.262217 0.000000 -105.909969
v 25.808663 0.000000 -116.667441
v 43.737783 15.000000 -134.090031
v 54.191337 15.000000 -123.332559
v 36.262217 15.000000 -105.909969
v 25.808663 15.000000 -116.667441
v 36.220295 0.000000 -62.731131
v 22.731131 0.000000 -83.779705
v 43.779705 0.000000 -97.268869
v 57.268869 0.000000 -76.220295
v 36.220295 45.000000 -62.731131
v 22.731131 45.000000 -83.779705
v 43.779705 45.000000 -97.268869
v 57.268869 45.000000 -76.220295
v 46.860901 0.000000 -54.462989
v 55.616284 0.000000 -36.481241
v 33.139099 0.000000 -25.537011
v 24.383716 0.000000 -43.518759
v 46.860901 15.000000 -54.462989
v 55.616284 15.000000 -36.481241
v 33.139099 15.000000 -25.537011
v 24.383716 15.000000 -43.518759
v 33.010501 0.000000 1.070933
v 38.929067 0.000000 -6.989499
v 46.989499 0.000000 -1.070933
v 41.070933 0.000000 6.989499
v 33.010501 20.000000 1.070933
v 38.929067 20.000000 -6.989499
v 46.989499 20.000000 -1.070933
v 41.070933 20.000000 6.989499
v 29.256946 0.000000 43.096256
v 43.968828 0.000000 29.547804
v 50.743054 0.000000 36.903744
v 36.031172 0.000000 50.452196
v 29.256946 25.000000 43.096256
v 43.968828 25.000000 29.547804
v 50.743054 25.000000 36.903744
v 36.031172 25.000000 50.452196
v 40.502302 0.000000 65.431277
v 53.091133 0.000000 73.587338
v 39.497698 0.000000 94.568723
v 26.908867 0.000000 86.412662
v 40.502302 45.000000 65.431277
v 53.091133 45.000000 73.587338
v 39.497698 45.000000 94.568723
v 26.908867 45.000000 86.412662
v 56.006222 0.000000 119.774451
v 36.706487 0.000000 135.665337
v 23.993778 0.000000 120.225549
v 43.293513 0.000000 104.334663
v 56.006222 10.000000 119.774451
v 36.706487 10.000000 135.665337
v 23.993778 10.000000 120.225549
v 43.293513 10.000000 104.334663
v 50.344899 0.000000 157.658405
v 42.341595 0.000000 170.344899
v 29.655101 0.000000 162.341595
v 37.658405 0.000000 149.655101
v 50.344899 30.000000 157.658405
v 42.341595 30.000000 170.344899
v 29.655101 30.000000 162.341595
v 37.658405 30.000000 149.655101
v 68.616084 0.000000 -308.745825
v 71.519225 0.000000 -333.576688
v 91.383916 0.000000 -331.254175
v 88.480775 0.000000 -306.423312
v 68.616084 10.000000 -308.745825
v 71.519225 10.000000 -333.576688
v 91.383916 10.000000 -331.254175
v 88.480775 10.000000 -306.423312
v 71.201888 0.000000 -290.190350
v 93.398874 0.000000 -278.688445
v 88.798112 0.000000 -269.809650
v 66.601126 0.000000 -281.311555
v 71.201888 25.000000 -290.190350
v 93.398874 25.000000 -278.688445
v 88.798112 25.000000 -269.809650
v 66.601126 25.000000 -281.311555
v 90.662299 0.000000 -230.059407
v 76.246441 0.000000 -225.914163
v 69.337701 0.000000 -249.940593
v 83.753559 0.000000 -254.085837
v 90.662299 15.000000 -230.059407
v 76.246441 15.000000 -225.914163
v 69.337701 15.000000 -249.940593
v 83.753559 15.000000 -254.085837
v 67.948819 0.000000 -203.319494
v 86.561045 0.000000 -210.639675
v 92.051181 0.000000 -196.680506
v 73.438955 0.000000 -189.360325
v 67.948819 15.000000 -203.319494
v 86.561045 15.000000 -210.639675
v 92.051181 15.000000 -196.680506
v 73.438955 15.000000 -189.360325
v 87.364578 0.000000 -145.786872
v 67.750149 0.000000 -149.695091
v 72.635422 0.000000 -174.213128
v 92.249851 0.000000 -170.304909
v 87.364578 15.000000 -145.786872
v 67.750149 15.000000 -149.695091
v 72.635422 15.000000 -174.213128
v 92.249851 15.000000 -170.304909
v 94.593426 0.000000 -113.421101
v 70.378127 0.000000 -107.206659
v 65.406574 0.000000 -126.578899
v 89.621873 0.000000 -132.793341
v 94.593426 50.000000 -113.421101
v 70.378127 50.000000 -107.206659
v 65.406574 50.000000 -126.578899
v 89.621873 50.000000 -132.793341
v 91.556674 0.000000 -73.093967
v 83.605844 0.000000 -67.028960
v 68.443326 0.000000 -86.906033
v 76.394156 0.000000 -92.971040
v 91.556674 35.000000 -73.093967
v 83.605844 35.000000 -67.028960
v 68.443326 35.000000 -86.906033
v 76.394156 35.000000 -92.971040
v 89.554732 0.000000 -5.805781
v 90.377464 0.000000 4.160317
v 70.445268 0.000000 5.805781
v 69.622536 0.000000 -4.160317
v 89.554732 10.000000 -5.805781
v 90.377464 10.000000 4.160317
v 70.445268 10.000000 5.805781
v 69.622536 10.000000 -4.160317
v 67.694212 0.000000 69.761955
v 92.689608 0.000000 70.241729
v 92.305788 0.000000 90.238045
v 67.310392 0.000000 89.758271
v 67.694212 20.000000 69.761955
v 92.689608 20.000000 70.241729
v 92.305788 20.000000 90.238045
v 67.310392 20.000000 89.758271
v 83.134759 0.000000 133.092872
v 68.700436 0.000000 112.680858
v 76.865241 0.000000 106.907128
v 91.299564 0.000000 127.319142
v 83.134759 45.000000 133.092872
v 68.700436 45.000000 112.680858
v 76.865241 45.000000 106.907128
v 91.299564 45.000000 127.319142
v 80.296074 0.000000 169.009014
v 71.797861 0.000000 163.738304
v 79.703926 0.000000 150.990986
v 88.202139 0.000000 156.261696
v 80.296074 35.000000 169.009014
v 71.797861 35.000000 163.738304
v 79.703926 35.000000 150.990986
v 88.202139 35.000000 156.261696
v 66.737564 0.000000 202.314693
v 88.007492 0.000000 189.177336
v 93.262436 0.000000 197.685307
v 71.992508 0.000000 210.822664
v 66.737564 45.000000 202.314693
v 88.007492 45.000000 189.177336
v 93.262436 45.000000 197.685307
v 71.992508 45.000000 210.822664
v 88.872262 0.000000 229.874143
v 93.408091 0.000000 238.786284
v 71.127738 0.000000 250.125857
v 66.591909 0.000000 241.213716
v 88.872262 50.000000 229.874143
v 93.408091 50.000000 238.786284
v 71.127738 50.000000 250.125857
v 66.591909 50.000000 241.213716
v 63.671474 0.000000 326.773421
v 73.226579 0.000000 303.671474
v 96.328526 0.000000 313.226579
v 86.773421 0.000000 336.328526
v 63.671474 10.000000 326.773421
v 73.226579 10.000000 303.671474
v 96.328526 10.000000 313.226579
v 86.773421 10.000000 336.328526
v 104.432429 0.000000 -311.624397
v 111.624397 0.000000 -335.567571
v 135.567571 0.000000 -328.375603
v 128.375603 0.000000 -304.432429
v 104.432429 10.000000 -311.624397
v 111.624397 10.000000 -335.567571
v 135.567571 10.000000 -328.375603
v 128.375603 10.000000 -304.432429
v 104.133801 0.000000 -282.124557
v 118.589915 0.000000 -295.945584
v 135.866199 0.000000 -277.875443
v 121.410085 0.000000 -264.054416
v 104.133801 45.000000 -282.124557
v 118.589915 45.000000 -295.945584
v 135.866199 45.000000 -277.875443
v 121.410085 45.000000 -264.054416
v 129.475804 0.000000 -235.234590
v 115.234590 0.000000 -230.524196
v 110.524196 0.000000 -244.765410
v 124.765410 0.000000 -249.475804
v 129.475804 30.000000 -235.234590
v 115.234590 30.000000 -230.524196
v 110.524196 30.000000 -244.765410
v 124.765410 30.000000 -249.475804
v 123.055016 0.000000 -191.519618
v 113.346962 0.000000 -193.918300
v 116.944984 0.000000 -208.480382
v 126.653038 0.000000 -206.081700
v 123.055016 15.000000 -191.519618
v 113.346962 15.000000 -193.918300
v 116.944984 15.000000 -208.480382
v 126.653038 15.000000 -206.081700
v 133.066452 0.000000 -129.247585
v 126.153789 0.000000 -105.222284
v 106.933548 0.000000 -110.752415
v 113.846211 0.000000 -134.777716
v 133.066452 50.000000 -129.247585
v 126.153789 50.000000 -105.222284
v 106.933548 50.000000 -110.752415
v 113.846211 50.000000 -134.777716
v 128.689625 0.000000 -64.605507
v 104.605507 0.000000 -71.310375
v 111.310375 0.000000 -95.394493
v 135.394493 0.000000 -88.689625
v 128.689625 25.000000 -64.605507
v 104.605507 25.000000 -71.310375
v 111.310375 25.000000 -95.394493
v 135.394493 25.000000 -88.689625
v 123.884411 0.000000 31.866037
v 126.014269 0.000000 46.714057
v 116.115589 0.000000 48.133963
v 113.985731 0.000000 33.285943
v 123.884411 30.000000 31.866037
v 126.014269 30.000000 46.714057
v 116.115589 30.000000 48.133963
v 113.985731 30.000000 33.285943
v 112.260838 0.000000 91.836611
v 108.163389 0.000000 72.260838
v 127.739162 0.000000 68.163389
v 131.836611 0.000000 87.739162
v 112.260838 10.000000 91.836611
v 108.163389 10.000000 72.260838
v 127.739162 10.000000 68.163389
v 131.836611 10.000000 87.739162
v 133.934845 0.000000 124.280197
v 109.665782 0.000000 130.281242
v 106.065155 0.000000 115.719803
v 130.334218 0.000000 109.718758
v 133.934845 45.000000 124.280197
v 109.665782 45.000000 130.281242
v 106.065155 45.000000 115.719803
v 130.334218 45.000000 109.718758
v 120.599487 0.000000 142.332498
v 137.667502 0.000000 160.599487
v 119.400513 0.000000 177.667502
v 102.332498 0.000000 159.400513
v 120.599487 35.000000 142.332498
v 137.667502 35.000000 160.599487
v 119.400513 35.000000 177.667502
v 102.332498 35.000000 159.400513
v 125.193548 0.000000 186.379168
v 134.462404 0.000000 198.172739
v 114.806452 0.000000 213.620832
v 105.537596 0.000000 201.827261
v 125.193548 25.000000 186.379168
v 134.462404 25.000000 198.172739
v 114.806452 25.000000 213.620832
v 105.537596 25.000000 201.827261
v 119.343106 0.000000 255.994327
v 104.251582 0.000000 242.870078
v 120.656894 0.000000 224.005673
v 135.748418 0.000000 237.129922
v 119.343106 40.000000 255.994327
v 104.251582 40.000000 242.870078
v 120.656894 40.000000 224.005673
v 135.748418 40.000000 237.129922
v 105.830613 0.000000 276.575314
v 116.353835 0.000000 265.885983
v 134.169387 0.000000 283.424686
v 123.646165 0.000000 294.114017
v 105.830613 10.000000 276.575314
v 116.353835 10.000000 265.885983
v 134.169387 10.000000 283.424686
v 123.646165 10.000000 294.114017
v 108.967602 0.000000 321.812786
v 125.169210 0.000000 310.086410
v 131.032398 0.000000 318.187214
v 114.830790 0.000000 329.913590
v 108.967602 45.000000 321.812786
v 125.169210 45.000000 310.086410
v 131.032398 45.000000 318.187214
v 114.830790 45.000000 329.913590
v 161.993032 0.000000 -328.790781
v 168.881117 0.000000 -321.541348
v 158.006968 0.000000 -311.209219
v 151.118883 0.000000 -318.458652
v 161.993032 40.000000 -328.790781
v 168.881117 40.000000 -321.541348
v 158.006968 40.000000 -311.209219
v 151.118883 40.000000 -318.458652
v 152.026646 0.000000 -269.152161
v 146.744923 0.000000 -277.643533
v 167.973354 0.000000 -290.847839
v 173.255077 0.000000 -282.356467
v 152.026646 30.000000 -269.152161
v 146.744923 30.000000 -277.643533
v 167.973354 30.000000 -290.847839
v 173.255077 30.000000 -282.356467
v 156.800005 0.000000 -229.287389
v 149.509914 0.000000 -236.132430
v 163.199995 0.000000 -250.712611
v 170.490086 0.000000 -243.867570
v 156.800005 50.000000 -229.287389
v 149.509914 50.000000 -236.132430
v 163.199995 50.000000 -250.712611
v 170.490086 50.000000 -243.867570
v 153.828557 0.000000 -188.034914
v 156.217192 0.000000 -212.920540
v 166.171443 0.000000 -211.965086
v 163.782808 0.000000 -187.079460
v 153.828557 15.000000 -188.034914
v 156.217192 15.000000 -212.920540
v 166.171443 15.000000 -211.965086
v 163.782808 15.000000 -187.079460
v 166.128661 0.000000 -149.105528
v 147.825282 0.000000 -157.166938
v 153.871339 0.000000 -170.894472
v 172.174718 0.000000 -162.833062
v 166.128661 15.000000 -149.105528
v 147.825282 15.000000 -157.166938
v 153.871339 15.000000 -170.894472
v 172.174718 15.000000 -162.833062
v 173.457385 0.000000 -80.385731
v 170.011024 0.000000 -70.998367
v 146.542615 0.000000 -79.614269
v 149.988976 0.000000 -89.001633
v 173.457385 20.000000 -80.385731
v 170.011024 20.000000 -70.998367
v 146.542615 20.000000 -79.614269
v 149.988976 20.000000 -89.001633
v 151.714598 0.000000 -32.493196
v 149.023315 0.000000 -42.124239
v 168.285402 0.000000 -47.506804
v 170.976685 0.000000 -37.875761
v 151.714598 10.000000 -32.493196
v 149.023315 10.000000 -42.124239
v 168.285402 10.000000 -47.506804
v 170.976685 10.000000 -37.875761
v 162.447005 0.000000 10.320473
v 149.679527 0.000000 2.447005
v 157.552995 0.000000 -10.320473
v 170.320473 0.000000 -2.447005
v 162.447005 50.000000 10.320473
v 149.679527 50.000000 2.447005
v 157.552995 50.000000 -10.320473
v 170.320473 50.000000 -2.447005
v 149.833943 0.000000 36.974893
v 163.025107 0.000000 29.833943
v 170.166057 0.000000 43.025107
v 156.974893 0.000000 50.166057
v 149.833943 20.000000 36.974893
v 163.025107 20.000000 29.833943
v 170.166057 20.000000 43.025107
v 156.974893 20.000000 50.166057
v 146.740598 0.000000 86.057084
v 148.415796 0.000000 71.150920
v 173.259402 0.000000 73.942916
v 171.584204 0.000000 88.849080
v 146.740598 20.000000 86.057084
v 148.415796 20.000000 71.150920
v 173.259402 20.000000 73.942916
v 171.584204 20.000000 88.849080
v 155.871108 0.000000 104.533835
v 175.995283 0.000000 119.366824
v 164.128892 0.000000 135.466165
v 144.004717 0.000000 120.633176
v 155.871108 10.000000 104.533835
v 175.995283 10.000000 119.366824
v 164.128892 10.000000 135.466165
v 144.004717 10.000000 120.633176
v 166.652242 0.000000 170.582895
v 147.977793 0.000000 163.422942
v 153.347758 0.000000 149.417105
v 172.022207 0.000000 156.577058
v 166.652242 15.000000 170.582895
v 147.977793 15.000000 163.422942
v 153.347758 15.000000 149.417105
v 172.022207 15.000000 156.577058
v 166.285778 0.000000 214.722058
v 147.016821 0.000000 209.364137
v 153.714222 0.000000 185.277942
v 172.983179 0.000000 190.635863
v 166.285778 30.000000 214.722058
v 147.016821 30.000000 209.364137
v 153.714222 30.000000 185.277942
v 172.983179 30.000000 190.635863
v 146.536588 0.000000 251.455852
v 148.544148 0.000000 226.536588
v 173.463412 0.000000 228.544148
v 171.455852 0.000000 253.463412
v 146.536588 15.000000 251.455852
v 148.544148 15.000000 226.536588
v 173.463412 15.000000 228.544148
v 171.455852 15.000000 253.463412
v 151.477225 0.000000 268.714509
v 171.285491 0.000000 271.477225
v 168.522775 0.000000 291.285491
v 148.714509 0.000000 288.522775
v 151.477225 10.000000 268.714509
v 171.285491 10.000000 271.477225
v 168.522775 10.000000 291.285491
v 148.714509 10.000000 288.522775
v 154.198762 0.000000 310.442509
v 171.126736 0.000000 321.093505
v 165.801238 0.000000 329.557491
v 148.873264 0.000000 318.906495
v 154.198762 10.000000 310.442509
v 171.126736 10.000000 321.093505
v 165.801238 10.000000 329.557491
v 148.873264 10.000000 318.906495
v 190.706565 0.000000 -311.640451
v 194.576995 0.000000 -331.262372
v 209.293435 0.000000 -328.359549
v 205.423005 0.000000 -308.737628
v 190.706565 35.000000 -311.640451
v 194.576995 35.000000 -331.262372
v 209.293435 35.000000 -328.359549
v 205.423005 35.000000 -308.737628
v 198.052998 0.000000 -231.198910
v 192.624764 0.000000 -245.182267
v 201.947002 0.000000 -248.801090
v 207.375236 0.000000 -234.817733
v 198.052998 10.000000 -231.198910
v 192.624764 10.000000 -245.182267
v 201.947002 10.000000 -248.801090
v 207.375236 10.000000 -234.817733
v 195.602773 0.000000 -211.701042
v 212.464224 0.000000 -200.945046
v 204.397227 0.000000 -188.298958
v 187.535776 0.000000 -199.054954
v 195.602773 15.000000 -211.701042
v 212.464224 15.000000 -200.945046
v 204.397227 15.000000 -188.298958
v 187.535776 15.000000 -199.054954
v 186.031169 0.000000 -155.832055
v 202.895969 0.000000 -174.286825
v 213.968831 0.000000 -164.167945
v 197.104031 0.000000 -145.713175
v 186.031169 25.000000 -155.832055
v 202.895969 25.000000 -174.286825
v 213.968831 25.000000 -164.167945
v 197.104031 25.000000 -145.713175
v 190.447392 0.000000 -109.571785
v 189.571785 0.000000 -129.552608
v 209.552608 0.000000 -130.428215
v 210.428215 0.000000 -110.447392
v 190.447392 20.000000 -109.571785
v 189.571785 20.000000 -129.552608
v 209.552608 20.000000 -130.428215
v 210.428215 20.000000 -110.447392
v 205.247570 0.000000 -95.123260
v 213.602495 0.000000 -71.560679
v 194.752430 0.000000 -64.876740
v 186.397505 0.000000 -88.439321
v 205.247570 35.000000 -95.123260
v 213.602495 35.000000 -71.560679
v 194.752430 35.000000 -64.876740
v 186.397505 35.000000 -88.439321
v 202.584102 0.000000 -48.635532
v 208.965146 0.000000 -40.936034
v 197.415898 0.000000 -31.364468
v 191.034854 0.000000 -39.063966
v 202.584102 25.000000 -48.635532
v 208.965146 25.000000 -40.936034
v 197.415898 25.000000 -31.364468
v 191.034854 25.000000 -39.063966
v 206.514613 0.000000 -14.622237
v 212.835560 0.000000 9.565479
v 193.485387 0.000000 14.622237
v 187.164440 0.000000 -9.565479
v 206.514613 15.000000 -14.622237
v 212.835560 15.000000 9.565479
v 193.485387 15.000000 14.622237
v 187.164440 15.000000 -9.565479
v 215.843425 0.000000 82.288203
v 194.289782 0.000000 94.954712
v 184.156575 0.000000 77.711797
v 205.710218 0.000000 65.045288
v 215.843425 30.000000 82.288203
v 194.289782 30.000000 94.954712
v 184.156575 30.000000 77.711797
v 205.710218 30.000000 65.045288
v 208.948546 0.000000 126.702502
v 189.268871 0.000000 123.137336
v 191.051454 0.000000 113.297498
v 210.731129 0.000000 116.862664
v 208.948546 25.000000 126.702502
v 189.268871 25.000000 123.137336
v 191.051454 25.000000 113.297498
v 210.731129 25.000000 116.862664
v 212.232463 0.000000 157.427675
v 199.044342 0.000000 172.463415
v 187.767537 0.000000 162.572325
v 200.955658 0.000000 147.536585
v 212.232463 15.000000 157.427675
v 199.044342 15.000000 172.463415
v 187.767537 15.000000 162.572325
v 200.955658 15.000000 147.536585
v 183.994728 0.000000 199.714908
v 196.764786 0.000000 184.322520
v 216.005272 0.000000 200.285092
v 203.235214 0.000000 215.677480
v 183.994728 15.000000 199.714908
v 196.764786 15.000000 184.322520
v 216.005272 15.000000 200.285092
v 203.235214 15.000000 215.677480
v 184.639630 0.000000 235.493447
v 201.024849 0.000000 224.025029
v 215.360370 0.000000 244.506553
v 198.975151 0.000000 255.974971
v 184.639630 15.000000 235.493447
v 201.024849 15.000000 224.025029
v 215.360370 15.000000 244.506553
v 198.975151 15.000000 255.974971
v 196.111206 0.000000 294.049102
v 185.773712 0.000000 283.180053
v 203.888794 0.000000 265.950898
v 214.226288 0.000000 276.819947
v 196.111206 45.000000 294.049102
v 185.773712 45.000000 283.180053
v 203.888794 45.000000 265.950898
v 214.226288 45.000000 276.819947
v 213.232150 0.000000 313.883611
v 199.169920 0.000000 334.553727
v 186.767850 0.000000 326.116389
v 200.830080 0.000000 305.446273
v 213.232150 40.000000 313.883611
v 199.169920 40.000000 334.553727
v 186.767850 40.000000 326.116389
v 200.830080 40.000000 305.446273
v 253.885297 0.000000 -327.965459
v 244.723188 0.000000 -304.704854
v 226.114703 0.000000 -312.034541
v 235.276812 0.000000 -335.295146
v 253.885297 10.000000 -327.965459
v 244.723188 10.000000 -304.704854
v 226.114703 10.000000 -312.034541
v 235.276812 10.000000 -335.295146
v 225.473828 0.000000 -278.779205
v 245.758674 0.000000 -293.391702
v 254.526172 0.000000 -281.220795
v 234.241326 0.000000 -266.608298
v 225.473828 35.000000 -278.779205
v 245.758674 35.000000 -293.391702
v 254.526172 35.000000 -281.220795
v 234.241326 35.000000 -266.608298
v 236.684987 0.000000 -229.322421
v 233.446945 0.000000 -249.058558
v 243.315013 0.000000 -250.677579
v 246.553055 0.000000 -230.941442
v 236.684987 40.000000 -229.322421
v 233.446945 40.000000 -249.058558
v 243.315013 40.000000 -250.677579
v 246.553055 40.000000 -230.941442
v 251.750674 0.000000 -206.570514
v 236.022280 0.000000 -187.138128
v 228.249326 0.000000 -193.429486
v 243.977720 0.000000 -212.861872
v 251.750674 25.000000 -206.570514
v 236.022280 25.000000 -187.138128
v 228.249326 25.000000 -193.429486
v 243.977720 25.000000 -212.861872
v 234.802097 0.000000 -155.206066
v 235.206066 0.000000 -165.197903
v 245.197903 0.000000 -164.793934
v 244.793934 0.000000 -154.802097
v 234.802097 35.000000 -155.206066
v 235.206066 35.000000 -165.197903
v 245.197903 35.000000 -164.793934
v 244.793934 35.000000 -154.802097
v 244.989627 0.000000 -87.506905
v 248.848538 0.000000 -78.281462
v 235.010373 0.000000 -72.493095
v 231.151462 0.000000 -81.718538
v 244.989627 25.000000 -87.506905
v 248.848538 25.000000 -78.281462
v 235.010373 25.000000 -72.493095
v 231.151462 25.000000 -81.718538
v 239.161722 0.000000 -48.974814
v 248.606859 0.000000 -37.321944
v 240.838278 0.000000 -31.025186
v 231.393141 0.000000 -42.678056
v 239.161722 30.000000 -48.974814
v 248.606859 30.000000 -37.321944
v 240.838278 30.000000 -31.025186
v 231.393141 30.000000 -42.678056
v 231.244781 0.000000 82.143862
v 241.388443 0.000000 71.093697
v 248.755219 0.000000 77.856138
v 238.611557 0.000000 88.906303
v 231.244781 10.000000 82.143862
v 241.388443 10.000000 71.093697
v 248.755219 10.000000 77.856138
v 238.611557 10.000000 88.906303
v 227.674996 0.000000 122.084293
v 234.548077 0.000000 108.751598
v 252.325004 0.000000 117.915707
v 245.451923 0.000000 131.248402
v 227.674996 10.000000 122.084293
v 234.548077 10.000000 108.751598
v 252.325004 10.000000 117.915707
v 245.451923 10.000000 131.248402
v 243.141732 0.000000 206.334786
v 233.665214 0.000000 203.141732
v 236.858268 0.000000 193.665214
v 246.334786 0.000000 196.858268
v 243.141732 45.000000 206.334786
v 233.665214 45.000000 203.141732
v 236.858268 45.000000 193.665214
v 246.334786 45.000000 196.858268
v 226.810146 0.000000 242.697731
v 228.588222 0.000000 232.857078
v 253.189854 0.000000 237.302269
v 251.411778 0.000000 247.142922
v 226.810146 50.000000 242.697731
v 228.588222 50.000000 232.857078
v 253.189854 50.000000 237.302269
v 251.411778 50.000000 247.142922
v 226.059682 0.000000 272.131230
v 244.616779 0.000000 264.672399
v 253.940318 0.000000 287.868770
v 235.383221 0.000000 295.327601
v 226.059682 10.000000 272.131230
v 244.616779 10.000000 264.672399
v 253.940318 10.000000 287.868770
v 235.383221 10.000000 295.327601
v 251.712836 0.000000 333.240448
v 226.759552 0.000000 331.712836
v 228.287164 0.000000 306.759552
v 253.240448 0.000000 308.287164
v 251.712836 15.000000 333.240448
v 226.759552 15.000000 331.712836
v 228.287164 15.000000 306.759552
v 253.240448 15.000000 308.287164
v 287.032165 0.000000 -319.259285
v 279.259285 0.000000 -312.967835
v 272.967835 0.000000 -320.740715
v 280.740715 0.000000 -327.032165
v 287.032165 35.000000 -319.259285
v 279.259285 35.000000 -312.967835
v 272.967835 35.000000 -320.740715
v 280.740715 35.000000 -327.032165
v 270.777832 0.000000 -226.915597
v 265.210350 0.000000 -246.125051
v 289.222168 0.000000 -253.084403
v 294.789650 0.000000 -233.874949
v 270.777832 50.000000 -226.915597
v 265.210350 50.000000 -246.125051
v 289.222168 50.000000 -253.084403
v 294.789650 50.000000 -233.874949
v 276.469269 0.000000 -212.991687
v 291.516521 0.000000 -193.027214
v 283.530731 0.000000 -187.008313
v 268.483479 0.000000 -206.972786
v 276.469269 15.000000 -212.991687
v 291.516521 15.000000 -193.027214
v 283.530731 15.000000 -187.008313
v 268.483479 15.000000 -206.972786
v 282.361654 0.000000 -174.384804
v 293.803841 0.000000 -164.685507
v 277.638346 0.000000 -145.615196
v 266.196159 0.000000 -155.314493
v 282.361654 45.000000 -174.384804
v 293.803841 45.000000 -164.685507
v 277.638346 45.000000 -145.615196
v 266.196159 45.000000 -155.314493
v 293.994437 0.000000 -130.800728
v 290.800728 0.000000 -106.005563
v 266.005563 0.000000 -109.199272
v 269.199272 0.000000 -133.994437
v 293.994437 40.000000 -130.800728
v 290.800728 40.000000 -106.005563
v 266.005563 40.000000 -109.199272
v 269.199272 40.000000 -133.994437
v 273.296835 0.000000 -92.452613
v 292.452613 0.000000 -86.703165
v 286.703165 0.000000 -67.547387
v 267.547387 0.000000 -73.296835
v 273.296835 35.000000 -92.452613
v 292.452613 35.000000 -86.703165
v 286.703165 35.000000 -67.547387
v 267.547387 35.000000 -73.296835
v 278.210950 0.000000 -53.343512
v 290.497941 0.000000 -31.571285
v 281.789050 0.000000 -26.656488
v 269.502059 0.000000 -48.428715
v 278.210950 15.000000 -53.343512
v 290.497941 15.000000 -31.571285
v 281.789050 15.000000 -26.656488
v 269.502059 15.000000 -48.428715
v 288.833422 0.000000 81.794619
v 274.945958 0.000000 87.463690
v 271.166578 0.000000 78.205381
v 285.054042 0.000000 72.536310
v 288.833422 50.000000 81.794619
v 274.945958 50.000000 87.463690
v 271.166578 50.000000 78.205381
v 285.054042 50.000000 72.536310
v 278.924224 0.000000 104.028378
v 295.818216 0.000000 122.456428
v 281.075776 0.000000 135.971622
v 264.181784 0.000000 117.543572
v 278.924224 40.000000 104.028378
v 295.818216 40.000000 122.456428
v 281.075776 40.000000 135.971622
v 264.181784 40.000000 117.543572
v 265.985507 0.000000 158.104221
v 281.895779 0.000000 145.985507
v 294.014493 0.000000 161.895779
v 278.104221 0.000000 174.014493
v 265.985507 35.000000 158.104221
v 281.895779 35.000000 145.985507
v 294.014493 35.000000 161.895779
v 278.104221 35.000000 174.014493
v 285.933175 0.000000 186.684692
v 294.540884 0.000000 198.969127
v 274.066825 0.000000 213.315308
v 265.459116 0.000000 201.030873
v 285.933175 25.000000 186.684692
v 294.540884 25.000000 198.969127
v 274.066825 25.000000 213.315308
v 265.459116 25.000000 201.030873
v 291.180319 0.000000 239.978350
v 273.309129 0.000000 248.957245
v 268.819681 0.000000 240.021650
v 286.690871 0.000000 231.042755
v 291.180319 30.000000 239.978350
v 273.309129 30.000000 248.957245
v 268.819681 30.000000 240.021650
v 286.690871 30.000000 231.042755
v 268.823567 0.000000 280.295561
v 273.057691 0.000000 271.236191
v 291.176433 0.000000 279.704439
v 286.942309 0.000000 288.763809
v 268.823567 10.000000 280.295561
v 273.057691 10.000000 271.236191
v 291.176433 10.000000 279.704439
v 286.942309 10.000000 288.763809
v 269.623814 0.000000 310.390902
v 289.609098 0.000000 309.623814
v 290.376186 0.000000 329.609098
v 270.390902 0.000000 330.376186
v 269.623814 35.000000 310.390902
v 289.609098 35.000000 309.623814
v 290.376186 35.000000 329.609098
v 270.390902 35.000000 330.376186
v 325.700861 0.000000 -332.196319
v 324.283045 0.000000 -307.236555
v 314.299139 0.000000 -307.803681
v 315.716955 0.000000 -332.763445
v 325.700861 20.000000 -332.196319
v 324.283045 20.000000 -307.236555
v 314.299139 20.000000 -307.803681
v 315.716955 20.000000 -332.763445
v 320.758928 0.000000 -271.018128
v 312.000936 0.000000 -275.844885
v 319.241072 0.000000 -288.981872
v 327.999064 0.000000 -284.155115
v 320.758928 40.000000 -271.018128
v 312.000936 40.000000 -275.844885
v 319.241072 40.000000 -288.981872
v 327.999064 40.000000 -284.155115
v 328.180031 0.000000 -251.536338
v 331.536338 0.000000 -231.819969
v 311.819969 0.000000 -228.463662
v 308.463662 0.000000 -248.180031
v 328.180031 35.000000 -251.536338
v 331.536338 35.000000 -231.819969
v 311.819969 35.000000 -228.463662
v 308.463662 35.000000 -248.180031
v 313.075038 0.000000 -198.569998
v 318.569998 0.000000 -206.924962
v 326.924962 0.000000 -201.430002
v 321.430002 0.000000 -193.075038
v 313.075038 20.000000 -198.569998
v 318.569998 20.000000 -206.924962
v 326.924962 20.000000 -201.430002
v 321.430002 20.000000 -193.075038
v 331.135433 0.000000 -158.998937
v 325.880409 0.000000 -150.491015
v 308.864567 0.000000 -161.001063
v 314.119591 0.000000 -169.508985
v 331.135433 45.000000 -158.998937
v 325.880409 45.000000 -150.491015
v 308.864567 45.000000 -161.001063
v 314.119591 45.000000 -169.508985
v 305.108207 0.000000 -110.474533
v 310.474533 0.000000 -134.891793
v 334.891793 0.000000 -129.525467
v 329.525467 0.000000 -105.108207
v 305.108207 30.000000 -110.474533
v 310.474533 30.000000 -134.891793
v 334.891793 30.000000 -129.525467
v 329.525467 30.000000 -105.108207
v 309.845516 0.000000 -67.625168
v 305.697960 0.000000 -87.190387
v 330.154484 0.000000 -92.374832
v 334.302040 0.000000 -72.809613
v 309.845516 15.000000 -67.625168
v 305.697960 15.000000 -87.190387
v 330.154484 15.000000 -92.374832
v 334.302040 15.000000 -72.809613
v 307.868818 0.000000 -29.555651
v 312.473333 0.000000 -54.127961
v 332.131182 0.000000 -50.444349
v 327.526667 0.000000 -25.872039
v 307.868818 10.000000 -29.555651
v 312.473333 10.000000 -54.127961
v 332.131182 10.000000 -50.444349
v 327.526667 10.000000 -25.872039
v 316.846117 0.000000 6.328746
v 313.671254 0.000000 -3.153883
v 323.153883 0.000000 -6.328746
v 326.328746 0.000000 3.153883
v 316.846117 25.000000 6.328746
v 313.671254 25.000000 -3.153883
v 323.153883 25.000000 -6.328746
v 326.328746 25.000000 3.153883
v 314.716075 0.000000 51.328289
v 307.645343 0.000000 38.099353
v 325.283925 0.000000 28.671711
v 332.354657 0.000000 41.900647
v 314.716075 30.000000 51.328289
v 307.645343 30.000000 38.099353
v 325.283925 30.000000 28.671711
v 332.354657 30.000000 41.900647
v 328.868088 0.000000 125.818679
v 314.181321 0.000000 128.868088
v 311.131912 0.000000 114.181321
v 325.818679 0.000000 111.131912
v 328.868088 40.000000 125.818679
v 314.181321 40.000000 128.868088
v 311.131912 40.000000 114.181321
v 325.818679 40.000000 111.131912
v 317.357734 0.000000 149.136371
v 330.276263 0.000000 164.404365
v 322.642266 0.000000 170.863629
v 309.723737 0.000000 155.595635
v 317.357734 40.000000 149.136371
v 330.276263 40.000000 164.404365
v 322.642266 40.000000 170.863629
v 309.723737 40.000000 155.595635
v 334.614822 0.000000 273.468769
v 329.580065 0.000000 292.824678
v 305.385178 0.000000 286.531231
v 310.419935 0.000000 267.175322
v 334.614822 40.000000 273.468769
v 329.580065 40.000000 292.824678
v 305.385178 40.000000 286.531231
v 310.419935 40.000000 267.175322
v 317.747093 0.000000 306.726929
v 327.522426 0.000000 308.834737
v 322.252907 0.000000 333.273071
v 312.477574 0.000000 331.165263
v 317.747093 10.000000 306.726929
v 327.522426 10.000000 308.834737
v 322.252907 10.000000 333.273071
v 312.477574 10.000000 331.165263

o box_0_0
f 1 2 3 4
f 5 8 7 6
f 1 5 6 2
f 4 3 7 8
f 1 4 8 5
f 2 6 7 3

o box_0_1
f 9 10 11 12
f 13 16 15 14
f 9 13 14 10
f 12 11 15 16
f 9 12 16 13
f 10 14 15 11

o box_0_2
f 17 18 19 20
f 21 24 23 22
f 17 21 22 18
f 20 19 23 24
f 17 20 24 21
f 18 22 23 19

o box_0_3
f 25 26 27 28
f 29 32 31 30
f 25 29 30 26
f 28 27 31 32
f 25 28 32 29
f 26 30 31 27

o box_0_4
f 33 34 35 36
f 37 40 39 38
f 33 37 38 34
f 36 35 39 40
f 33 36 40 37
f 34 38 39 35

o box_0_5
f 41 42 43 44
f 45 48 47 46
f 41 45 46 42
f 44 43 47 48
f 41 44 48 45
f 42 46 47 43

o box_0_6
f 49 50 51 52
f 53 56 55 54
f 49 53 54 50
f 52 51 55 56
f 49 52 56 53
f 50 54 55 51

o box_0_7
f 57 58 59 60
f 61 64 63 62
f 57 61 62 58
f 60 59 63 64
f 57 60 64 61
f 58 62 63 59

o box_0_8
f 65 66 67 68
f 69 72 71 70
f 65 69 70 66
f 68 67 71 72
f 65 68 72 69
f 66 70 71 67

o box_0_9
f 73 74 75 76
f 77 80 79 78
f 73 77 78 74
f 76 75 79 80
f 73 76 80 77
f 74 78 79 75

o box_0_10
f 81 82 83 84
f 85 88 87 86
f 81 85 86 82
f 84 83 87 88
f 81 84 88 85
f 82 86 87 83

o box_0_11
f 89 90 91 92
f 93 96 95 94
f 89 93 94 90
f 92 91 95 96
f 89 92 96 93
f 90 94 95 91

o box_0_12
f 97 98 99 100
f 101 104 103 102
f 97 101 102 98
f 100 99 103 104
f 97 100 104 101
f 98 102 103 99

o box_0_14
f 105 106 107 108
f 109 112 111 110
f 105 109 110 106
f 108 107 111 112
f 105 108 112 109
f 106 110 111 107

o box_0_15
f 113 114 115 116
f 117 120 119 118
f 113 117 118 114
f 116 115 119 120
f 113 116 120 117
f 114 118 119 115

o box_0_16
f 121 122 123 124
f 125 128 127 126
f 121 125 126 122
f 124 123 127 128
f 121 124 128 125
f 122 126 127 123

o box_1_0
f 129 130 131 132
f 133 136 135 134
f 129 133 134 130
f 132 131 135 136
f 129 132 136 133
f 130 134 135 131

o box_1_1
f 137 138 139 140
f 141 144 143 142
f 137 141 142 138
f 140 139 143 144
f 137 140 144 141
f 138 142 143 139

o box_1_2
f 145 146 147 148
f 149 152 151 150
f 145 149 150 146
f 148 147 151 152
f 145 148 152 149
f 146 150 151 147

o box_1_3
f 153 154 155 156
f 157 160 159 158
f 153 157 158 154
f 156 155 159 160
f 153 156 160 157
f 154 158 159 155

o box_1_5
f 161 162 163 164
f 165 168 167 166
f 161 165 166 162
f 164 163 167 168
f 161 164 168 165
f 162 166 167 163

o box_1_8
f 169 170 171 172
f 173 176 175 174
f 169 173 174 170
f 172 171 175 176
f 169 172 176 173
f 170 174 175 171

o box_1_9
f 177 178 179 180
f 181 184 183 182
f 177 181 182 178
f 180 179 183 184
f 177 180 184 181
f 178 182 183 179

o box_1_11
f 185 186 187 188
f 189 192 191 190
f 185 189 190 186
f 188 187 191 192
f 185 188 192 189
f 186 190 191 187

o box_1_12
f 193 194 195 196
f 197 200 199 198
f 193 197 198 194
f 196 195 199 200
f 193 196 200 197
f 194 198 199 195

o box_1_13
f 201 202 203 204
f 205 208 207 206
f 201 205 206 202
f 204 203 207 208
f 201 204 208 205
f 202 206 207 203

o box_1_14
f 209 210 211 212
f 213 216 215 214
f 209 213 214 210
f 212 211 215 216
f 209 212 216 213
f 210 214 215 211

o box_1_16
f 217 218 219 220
f 221 224 223 222
f 217 221 222 218
f 220 219 223 224
f 217 220 224 221
f 218 222 223 219

o box_2_0
f 225 226 227 228
f 229 232 231 230
f 225 229 230 226
f 228 227 231 232
f 225 228 232 229
f 226 230 231 227

o box_2_1
f 233 234 235 236
f 237 240 239 238
f 233 237 238 234
f 236 235 239 240
f 233 236 240 237
f 234 238 239 235

o box_2_3
f 241 242 243 244
f 245 248 247 246
f 241 245 246 242
f 244 243 247 248
f 241 244 248 245
f 242 246 247 243

o box_2_7
f 249 250 251 252
f 253 256 255 254
f 249 253 254 250
f 252 251 255 256
f 249 252 256 253
f 250 254 255 251

o box_2_9
f 257 258 259 260
f 261 264 263 262
f 257 261 262 258
f 260 259 263 264
f 257 260 264 261
f 258 262 263 259

o box_2_12
f 265 266 267 268
f 269 272 271 270
f 265 269 270 266
f 268 267 271 272
f 265 268 272 269
f 266 270 271 267

o box_2_14
f 273 274 275 276
f 277 280 279 278
f 273 277 278 274
f 276 275 279 280
f 273 276 280 277
f 274 278 279 275

o box_2_15
f 281 282 283 284
f 285 288 287 286
f 281 285 286 282
f 284 283 287 288
f 281 284 288 285
f 282 286 287 283

o box_2_16
f 289 290 291 292
f 293 296 295 294
f 289 293 294 290
f 292 291 295 296
f 289 292 296 293
f 290 294 295 291

o box_3_0
f 297 298 299 300
f 301 304 303 302
f 297 301 302 298
f 300 299 303 304
f 297 300 304 301
f 298 302 303 299

o box_3_1
f 305 306 307 308
f 309 312 311 310
f 305 309 310 306
f 308 307 311 312
f 305 308 312 309
f 306 310 311 307

o box_3_2
f 313 314 315 316
f 317 320 319 318
f 313 317 318 314
f 316 315 319 320
f 313 316 320 317
f 314 318 319 315

o box_3_4
f 321 322 323 324
f 325 328 327 326
f 321 325 326 322
f 324 323 327 328
f 321 324 328 325
f 322 326 327 323

o box_3_5
f 329 330 331 332
f 333 336 335 334
f 329 333 334 330
f 332 331 335 336
f 329 332 336 333
f 330 334 335 331

o box_3_6
f 337 338 339 340
f 341 344 343 342
f 337 341 342 338
f 340 339 343 344
f 337 340 344 341
f 338 342 343 339

o box_3_7
f 345 346 347 348
f 349 352 351 350
f 345 349 350 346
f 348 347 351 352
f 345 348 352 349
f 346 350 351 347

o box_3_9
f 353 354 355 356
f 357 360 359 358
f 353 357 358 354
f 356 355 359 360
f 353 356 360 357
f 354 358 359 355

o box_3_10
f 361 362 363 364
f 365 368 367 366
f 361 365 366 362
f 364 363 367 368
f 361 364 368 365
f 362 366 367 363

o box_3_11
f 369 370 371 372
f 373 376 375 374
f 369 373 374 370
f 372 371 375 376
f 369 372 376 373
f 370 374 375 371

o box_3_12
f 377 378 379 380
f 381 384 383 382
f 377 381 382 378
f 380 379 383 384
f 377 380 384 381
f 378 382 383 379

o box_3_13
f 385 386 387 388
f 389 392 391 390
f 385 389 390 386
f 388 387 391 392
f 385 388 392 389
f 386 390 391 387

o box_3_14
f 393 394 395 396
f 397 400 399 398
f 393 397 398 394
f 396 395 399 400
f 393 396 400 397
f 394 398 399 395

o box_3_15
f 401 402 403 404
f 405 408 407 406
f 401 405 406 402
f 404 403 407 408
f 401 404 408 405
f 402 406 407 403

o box_4_0
f 409 410 411 412
f 413 416 415 414
f 409 413 414 410
f 412 411 415 416
f 409 412 416 413
f 410 414 415 411

o box_4_1
f 417 418 419 420
f 421 424 423 422
f 417 421 422 418
f 420 419 423 424
f 417 420 424 421
f 418 422 423 419

o box_4_2
f 425 426 427 428
f 429 432 431 430
f 425 429 430 426
f 428 427 431 432
f 425 428 432 429
f 426 430 431 427

o box_4_3
f 433 434 435 436
f 437 440 439 438
f 433 437 438 434
f 436 435 439 440
f 433 436 440 437
f 434 438 439 435

o box_4_4
f 441 442 443 444
f 445 448 447 446
f 441 445 446 442
f 444 443 447 448
f 441 444 448 445
f 442 446 447 443

o box_4_6
f 449 450 451 452
f 453 456 455 454
f 449 453 454 450
f 452 451 455 456
f 449 452 456 453
f 450 454 455 451

o box_4_7
f 457 458 459 460
f 461 464 463 462
f 457 461 462 458
f 460 459 463 464
f 457 460 464 461
f 458 462 463 459

o box_4_8
f 465 466 467 468
f 469 472 471 470
f 465 469 470 466
f 468 467 471 472
f 465 468 472 469
f 466 470 471 467

o box_4_11
f 473 474 475 476
f 477 480 479 478
f 473 477 478 474
f 476 475 479 480
f 473 476 480 477
f 474 478 479 475

o box_4_12
f 481 482 483 484
f 485 488 487 486
f 481 485 486 482
f 484 483 487 488
f 481 484 488 485
f 482 486 487 483

o box_4_13
f 489 490 491 492
f 493 496 495 494
f 489 493 494 490
f 492 491 495 496
f 489 492 496 493
f 490 494 495 491

o box_4_14
f 497 498 499 500
f 501 504 503 502
f 497 501 502 498
f 500 499 503 504
f 497 500 504 501
f 498 502 503 499

o box_4_15
f 505 506 507 508
f 509 512 511 510
f 505 509 510 506
f 508 507 511 512
f 505 508 512 509
f 506 510 511 507

o box_4_16
f 513 514 515 516
f 517 520 519 518
f 513 517 518 514
f 516 515 519 520
f 513 516 520 517
f 514 518 519 515

o box_5_0
f 521 522 523 524
f 525 528 527 526
f 521 525 526 522
f 524 523 527 528
f 521 524 528 525
f 522 526 527 523

o box_5_1
f 529 530 531 532
f 533 536 535 534
f 529 533 534 530
f 532 531 535 536
f 529 532 536 533
f 530 534 535 531

o box_5_2
f 537 538 539 540
f 541 544 543 542
f 537 541 542 538
f 540 539 543 544
f 537 540 544 541
f 538 542 543 539

o box_5_3
f 545 546 547 548
f 549 552 551 550
f 545 549 550 546
f 548 547 551 552
f 545 548 552 549
f 546 550 551 547

o box_5_4
f 553 554 555 556
f 557 560 559 558
f 553 557 558 554
f 556 555 559 560
f 553 556 560 557
f 554 558 559 555

o box_5_5
f 561 562 563 564
f 565 568 567 566
f 561 565 566 562
f 564 563 567 568
f 561 564 568 565
f 562 566 567 563

o box_5_7
f 569 570 571 572
f 573 576 575 574
f 569 573 574 570
f 572 571 575 576
f 569 572 576 573
f 570 574 575 571

o box_5_8
f 577 578 579 580
f 581 584 583 582
f 577 581 582 578
f 580 579 583 584
f 577 580 584 581
f 578 582 583 579

o box_5_9
f 585 586 587 588
f 589 592 591 590
f 585 589 590 586
f 588 587 591 592
f 585 588 592 589
f 586 590 591 587

o box_5_10
f 593 594 595 596
f 597 600 599 598
f 593 597 598 594
f 596 595 599 600
f 593 596 600 597
f 594 598 599 595

o box_5_11
f 601 602 603 604
f 605 608 607 606
f 601 605 606 602
f 604 603 607 608
f 601 604 608 605
f 602 606 607 603

o box_5_13
f 609 610 611 612
f 613 616 615 614
f 609 613 614 610
f 612 611 615 616
f 609 612 616 613
f 610 614 615 611

o box_5_14
f 617 618 619 620
f 621 624 623 622
f 617 621 622 618
f 620 619 623 624
f 617 620 624 621
f 618 622 623 619

o box_5_15
f 625 626 627 628
f 629 632 631 630
f 625 629 630 626
f 628 627 631 632
f 625 628 632 629
f 626 630 631 627

o box_5_16
f 633 634 635 636
f 637 640 639 638
f 633 637 638 634
f 636 635 639 640
f 633 636 640 637
f 634 638 639 635

o box_6_0
f 641 642 643 644
f 645 648 647 646
f 641 645 646 642
f 644 643 647 648
f 641 644 648 645
f 642 646 647 643

o box_6_1
f 649 650 651 652
f 653 656 655 654
f 649 653 654 650
f 652 651 655 656
f 649 652 656 653
f 650 654 655 651

o box_6_2
f 657 658 659 660
f 661 664 663 662
f 657 661 662 658
f 660 659 663 664
f 657 660 664 661
f 658 662 663 659

o box_6_3
f 665 666 667 668
f 669 672 671 670
f 665 669 670 666
f 668 667 671 672
f 665 668 672 669
f 666 670 671 667

o box_6_4
f 673 674 675 676
f 677 680 679 678
f 673 677 678 674
f 676 675 679 680
f 673 676 680 677
f 674 678 679 675

o box_6_5
f 681 682 683 684
f 685 688 687 686
f 681 685 686 682
f 684 683 687 688
f 681 684 688 685
f 682 686 687 683

o box_6_6
f 689 690 691 692
f 693 696 695 694
f 689 693 694 690
f 692 691 695 696
f 689 692 696 693
f 690 694 695 691

o box_6_7
f 697 698 699 700
f 701 704 703 702
f 697 701 702 698
f 700 699 703 704
f 697 700 704 701
f 698 702 703 699

o box_6_9
f 705 706 707 708
f 709 712 711 710
f 705 709 710 706
f 708 707 711 712
f 705 708 712 709
f 706 710 711 707

o box_6_12
f 713 714 715 716
f 717 720 719 718
f 713 717 718 714
f 716 715 719 720
f 713 716 720 717
f 714 718 719 715

o box_6_13
f 721 722 723 724
f 725 728 727 726
f 721 725 726 722
f 724 723 727 728
f 721 724 728 725
f 722 726 727 723

o box_6_14
f 729 730 731 732
f 733 736 735 734
f 729 733 734 730
f 732 731 735 736
f 729 732 736 733
f 730 734 735 731

o box_6_15
f 737 738 739 740
f 741 744 743 742
f 737 741 742 738
f 740 739 743 744
f 737 740 744 741
f 738 742 743 739

o box_6_16
f 745 746 747 748
f 749 752 751 750
f 745 749 750 746
f 748 747 751 752
f 745 748 752 749
f 746 750 751 747

o box_7_0
f 753 754 755 756
f 757 760 759 758
f 753 757 758 754
f 756 755 759 760
f 753 756 760 757
f 754 758 759 755

o box_7_1
f 761 762 763 764
f 765 768 767 766
f 761 765 766 762
f 764 763 767 768
f 761 764 768 765
f 762 766 767 763

o box_7_2
f 769 770 771 772
f 773 776 775 774
f 769 773 774 770
f 772 771 775 776
f 769 772 776 773
f 770 774 775 771

o box_7_4
f 777 778 779 780
f 781 784 783 782
f 777 781 782 778
f 780 779 783 784
f 777 780 784 781
f 778 782 783 779

o box_7_5
f 785 786 787 788
f 789 792 791 790
f 785 789 790 786
f 788 787 791 792
f 785 788 792 789
f 786 790 791 787

o box_7_8
f 793 794 795 796
f 797 800 799 798
f 793 797 798 794
f 796 795 799 800
f 793 796 800 797
f 794 798 799 795

o box_7_9
f 801 802 803 804
f 805 808 807 806
f 801 805 806 802
f 804 803 807 808
f 801 804 808 805
f 802 806 807 803

o box_7_10
f 809 810 811 812
f 813 816 815 814
f 809 813 814 810
f 812 811 815 816
f 809 812 816 813
f 810 814 815 811

o box_7_11
f 817 818 819 820
f 821 824 823 822
f 817 821 822 818
f 820 819 823 824
f 817 820 824 821
f 818 822 823 819

o box_7_13
f 825 826 827 828
f 829 832 831 830
f 825 829 830 826
f 828 827 831 832
f 825 828 832 829
f 826 830 831 827

o box_7_15
f 833 834 835 836
f 837 840 839 838
f 833 837 838 834
f 836 835 839 840
f 833 836 840 837
f 834 838 839 835

o box_7_16
f 841 842 843 844
f 845 848 847 846
f 841 845 846 842
f 844 843 847 848
f 841 844 848 845
f 842 846 847 843

o box_8_0
f 849 850 851 852
f 853 856 855 854
f 849 853 854 850
f 852 851 855 856
f 849 852 856 853
f 850 854 855 851

o box_8_1
f 857 858 859 860
f 861 864 863 862
f 857 861 862 858
f 860 859 863 864
f 857 860 864 861
f 858 862 863 859

o box_8_2
f 865 866 867 868
f 869 872 871 870
f 865 869 870 866
f 868 867 871 872
f 865 868 872 869
f 866 870 871 867

o box_8_3
f 873 874 875 876
f 877 880 879 878
f 873 877 878 874
f 876 875 879 880
f 873 876 880 877
f 874 878 879 875

o box_8_4
f 881 882 883 884
f 885 888 887 886
f 881 885 886 882
f 884 883 887 888
f 881 884 888 885
f 882 886 887 883

o box_8_5
f 889 890 891 892
f 893 896 895 894
f 889 893 894 890
f 892 891 895 896
f 889 892 896 893
f 890 894 895 891

o box_8_7
f 897 898 899 900
f 901 904 903 902
f 897 901 902 898
f 900 899 903 904
f 897 900 904 901
f 898 902 903 899

o box_8_8
f 905 906 907 908
f 909 912 911 910
f 905 909 910 906
f 908 907 911 912
f 905 908 912 909
f 906 910 911 907

o box_8_9
f 913 914 915 916
f 917 920 919 918
f 913 917 918 914
f 916 915 919 920
f 913 916 920 917
f 914 918 919 915

o box_8_10
f 921 922 923 924
f 925 928 927 926
f 921 925 926 922
f 924 923 927 928
f 921 924 928 925
f 922 926 927 923

o box_8_11
f 929 930 931 932
f 933 936 935 934
f 929 933 934 930
f 932 931 935 936
f 929 932 936 933
f 930 934 935 931

o box_8_13
f 937 938 939 940
f 941 944 943 942
f 937 941 942 938
f 940 939 943 944
f 937 940 944 941
f 938 942 943 939

o box_8_14
f 945 946 947 948
f 949 952 951 950
f 945 949 950 946
f 948 947 951 952
f 945 948 952 949
f 946 950 951 947

o box_8_15
f 953 954 955 956
f 957 960 959 958
f 953 957 958 954
f 956 955 959 960
f 953 956 960 957
f 954 958 959 955

o box_8_16
f 961 962 963 964
f 965 968 967 966
f 961 965 966 962
f 964 963 967 968
f 961 964 968 965
f 962 966 967 963

o box_9_0
f 969 970 971 972
f 973 976 975 974
f 969 973 974 970
f 972 971 975 976
f 969 972 976 973
f 970 974 975 971

o box_9_1
f 977 978 979 980
f 981 984 983 982
f 977 981 982 978
f 980 979 983 984
f 977 980 984 981
f 978 982 983 979

o box_9_2
f 985 986 987 988
f 989 992 991 990
f 985 989 990 986
f 988 987 991 992
f 985 988 992 989
f 986 990 991 987

o box_9_5
f 993 994 995 996
f 997 1000 999 998
f 993 997 998 994
f 996 995 999 1000
f 993 996 1000 997
f 994 998 999 995

o box_9_6
f 1001 1002 1003 1004
f 1005 1008 1007 1006
f 1001 1005 1006 1002
f 1004 1003 1007 1008
f 1001 1004 1008 1005
f 1002 1006 1007 1003

o box_9_7
f 1009 1010 1011 1012
f 1013 1016 1015 1014
f 1009 1013 1014 1010
f 1012 1011 1015 1016
f 1009 1012 1016 1013
f 1010 1014 1015 1011

o box_9_8
f 1017 1018 1019 1020
f 1021 1024 1023 1022
f 1017 1021 1022 1018
f 1020 1019 1023 1024
f 1017 1020 1024 1021
f 1018 1022 1023 1019

o box_9_9
f 1025 1026 1027 1028
f 1029 1032 1031 1030
f 1025 1029 1030 1026
f 1028 1027 1031 1032
f 1025 1028 1032 1029
f 1026 1030 1031 1027

o box_9_10
f 1033 1034 1035 1036
f 1037 1040 1039 1038
f 1033 1037 1038 1034
f 1036 1035 1039 1040
f 1033 1036 1040 1037
f 1034 1038 1039 1035

o box_9_11
f 1041 1042 1043 1044
f 1045 1048 1047 1046
f 1041 1045 1046 1042
f 1044 1043 1047 1048
f 1041 1044 1048 1045
f 1042 1046 1047 1043

o box_9_12
f 1049 1050 1051 1052
f 1053 1056 1055 1054
f 1049 1053 1054 1050
f 1052 1051 1055 1056
f 1049 1052 1056 1053
f 1050 1054 1055 1051

o box_10_0
f 1057 1058 1059 1060
f 1061 1064 1063 1062
f 1057 1061 1062 1058
f 1060 1059 1063 1064
f 1057 1060 1064 1061
f 1058 1062 1063 1059

o box_10_1
f 1065 1066 1067 1068
f 1069 1072 1071 1070
f 1065 1069 1070 1066
f 1068 1067 1071 1072
f 1065 1068 1072 1069
f 1066 1070 1071 1067

o box_10_2
f 1073 1074 1075 1076
f 1077 1080 1079 1078
f 1073 1077 1078 1074
f 1076 1075 1079 1080
f 1073 1076 1080 1077
f 1074 1078 1079 1075

o box_10_3
f 1081 1082 1083 1084
f 1085 1088 1087 1086
f 1081 1085 1086 1082
f 1084 1083 1087 1088
f 1081 1084 1088 1085
f 1082 1086 1087 1083

o box_10_4
f 1089 1090 1091 1092
f 1093 1096 1095 1094
f 1089 1093 1094 1090
f 1092 1091 1095 1096
f 1089 1092 1096 1093
f 1090 1094 1095 1091

o box_10_5
f 1097 1098 1099 1100
f 1101 1104 1103 1102
f 1097 1101 1102 1098
f 1100 1099 1103 1104
f 1097 1100 1104 1101
f 1098 1102 1103 1099

o box_10_6
f 1105 1106 1107 1108
f 1109 1112 1111 1110
f 1105 1109 1110 1106
f 1108 1107 1111 1112
f 1105 1108 1112 1109
f 1106 1110 1111 1107

o box_10_8
f 1113 1114 1115 1116
f 1117 1120 1119 1118
f 1113 1117 1118 1114
f 1116 1115 1119 1120
f 1113 1116 1120 1117
f 1114 1118 1119 1115

o box_10_10
f 1121 1122 1123 1124
f 1125 1128 1127 1126
f 1121 1125 1126 1122
f 1124 1123 1127 1128
f 1121 1124 1128 1125
f 1122 1126 1127 1123

o box_10_11
f 1129 1130 1131 1132
f 1133 1136 1135 1134
f 1129 1133 1134 1130
f 1132 1131 1135 1136
f 1129 1132 1136 1133
f 1130 1134 1135 1131

o box_10_12
f 1137 1138 1139 1140
f 1141 1144 1143 1142
f 1137 1141 1142 1138
f 1140 1139 1143 1144
f 1137 1140 1144 1141
f 1138 1142 1143 1139

o box_10_13
f 1145 1146 1147 1148
f 1149 1152 1151 1150
f 1145 1149 1150 1146
f 1148 1147 1151 1152
f 1145 1148 1152 1149
f 1146 1150 1151 1147

o box_10_14
f 1153 1154 1155 1156
f 1157 1160 1159 1158
f 1153 1157 1158 1154
f 1156 1155 1159 1160
f 1153 1156 1160 1157
f 1154 1158 1159 1155

o box_10_16
f 1161 1162 1163 1164
f 1165 1168 1167 1166
f 1161 1165 1166 1162
f 1164 1163 1167 1168
f 1161 1164 1168 1165
f 1162 1166 1167 1163

o box_11_0
f 1169 1170 1171 1172
f 1173 1176 1175 1174
f 1169 1173 1174 1170
f 1172 1171 1175 1176
f 1169 1172 1176 1173
f 1170 1174 1175 1171

o box_11_1
f 1177 1178 1179 1180
f 1181 1184 1183 1182
f 1177 1181 1182 1178
f 1180 1179 1183 1184
f 1177 1180 1184 1181
f 1178 1182 1183 1179

o box_11_2
f 1185 1186 1187 1188
f 1189 1192 1191 1190
f 1185 1189 1190 1186
f 1188 1187 1191 1192
f 1185 1188 1192 1189
f 1186 1190 1191 1187

o box_11_3
f 1193 1194 1195 1196
f 1197 1200 1199 1198
f 1193 1197 1198 1194
f 1196 1195 1199 1200
f 1193 1196 1200 1197
f 1194 1198 1199 1195

o box_11_5
f 1201 1202 1203 1204
f 1205 1208 1207 1206
f 1201 1205 1206 1202
f 1204 1203 1207 1208
f 1201 1204 1208 1205
f 1202 1206 1207 1203

o box_11_6
f 1209 1210 1211 1212
f 1213 1216 1215 1214
f 1209 1213 1214 1210
f 1212 1211 1215 1216
f 1209 1212 1216 1213
f 1210 1214 1215 1211

o box_11_9
f 1217 1218 1219 1220
f 1221 1224 1223 1222
f 1217 1221 1222 1218
f 1220 1219 1223 1224
f 1217 1220 1224 1221
f 1218 1222 1223 1219

o box_11_10
f 1225 1226 1227 1228
f 1229 1232 1231 1230
f 1225 1229 1230 1226
f 1228 1227 1231 1232
f 1225 1228 1232 1229
f 1226 1230 1231 1227

o box_11_11
f 1233 1234 1235 1236
f 1237 1240 1239 1238
f 1233 1237 1238 1234
f 1236 1235 1239 1240
f 1233 1236 1240 1237
f 1234 1238 1239 1235

o box_11_12
f 1241 1242 1243 1244
f 1245 1248 1247 1246
f 1241 1245 1246 1242
f 1244 1243 1247 1248
f 1241 1244 1248 1245
f 1242 1246 1247 1243

o box_11_13
f 1249 1250 1251 1252
f 1253 1256 1255 1254
f 1249 1253 1254 1250
f 1252 1251 1255 1256
f 1249 1252 1256 1253
f 1250 1254 1255 1251

o box_11_14
f 1257 1258 1259 1260
f 1261 1264 1263 1262
f 1257 1261 1262 1258
f 1260 1259 1263 1264
f 1257 1260 1264 1261
f 1258 1262 1263 1259

o box_11_15
f 1265 1266 1267 1268
f 1269 1272 1271 1270
f 1265 1269 1270 1266
f 1268 1267 1271 1272
f 1265 1268 1272 1269
f 1266 1270 1271 1267

o box_11_16
f 1273 1274 1275 1276
f 1277 1280 1279 1278
f 1273 1277 1278 1274
f 1276 1275 1279 1280
f 1273 1276 1280 1277
f 1274 1278 1279 1275

o box_12_0
f 1281 1282 1283 1284
f 1285 1288 1287 1286
f 1281 1285 1286 1282
f 1284 1283 1287 1288
f 1281 1284 1288 1285
f 1282 1286 1287 1283

o box_12_1
f 1289 1290 1291 1292
f 1293 1296 1295 1294
f 1289 1293 1294 1290
f 1292 1291 1295 1296
f 1289 1292 1296 1293
f 1290 1294 1295 1291

o box_12_2
f 1297 1298 1299 1300
f 1301 1304 1303 1302
f 1297 1301 1302 1298
f 1300 1299 1303 1304
f 1297 1300 1304 1301
f 1298 1302 1303 1299

o box_12_3
f 1305 1306 1307 1308
f 1309 1312 1311 1310
f 1305 1309 1310 1306
f 1308 1307 1311 1312
f 1305 1308 1312 1309
f 1306 1310 1311 1307

o box_12_4
f 1313 1314 1315 1316
f 1317 1320 1319 1318
f 1313 1317 1318 1314
f 1316 1315 1319 1320
f 1313 1316 1320 1317
f 1314 1318 1319 1315

o box_12_6
f 1321 1322 1323 1324
f 1325 1328 1327 1326
f 1321 1325 1326 1322
f 1324 1323 1327 1328
f 1321 1324 1328 1325
f 1322 1326 1327 1323

o box_12_7
f 1329 1330 1331 1332
f 1333 1336 1335 1334
f 1329 1333 1334 1330
f 1332 1331 1335 1336
f 1329 1332 1336 1333
f 1330 1334 1335 1331

o box_12_8
f 1337 1338 1339 1340
f 1341 1344 1343 1342
f 1337 1341 1342 1338
f 1340 1339 1343 1344
f 1337 1340 1344 1341
f 1338 1342 1343 1339

o box_12_9
f 1345 1346 1347 1348
f 1349 1352 1351 1350
f 1345 1349 1350 1346
f 1348 1347 1351 1352
f 1345 1348 1352 1349
f 1346 1350 1351 1347

o box_12_10
f 1353 1354 1355 1356
f 1357 1360 1359 1358
f 1353 1357 1358 1354
f 1356 1355 1359 1360
f 1353 1356 1360 1357
f 1354 1358 1359 1355

o box_12_11
f 1361 1362 1363 1364
f 1365 1368 1367 1366
f 1361 1365 1366 1362
f 1364 1363 1367 1368
f 1361 1364 1368 1365
f 1362 1366 1367 1363

o box_12_12
f 1369 1370 1371 1372
f 1373 1376 1375 1374
f 1369 1373 1374 1370
f 1372 1371 1375 1376
f 1369 1372 1376 1373
f 1370 1374 1375 1371

o box_12_13
f 1377 1378 1379 1380
f 1381 1384 1383 1382
f 1377 1381 1382 1378
f 1380 1379 1383 1384
f 1377 1380 1384 1381
f 1378 1382 1383 1379

o box_12_14
f 1385 1386 1387 1388
f 1389 1392 1391 1390
f 1385 1389 1390 1386
f 1388 1387 1391 1392
f 1385 1388 1392 1389
f 1386 1390 1391 1387

o box_12_15
f 1393 1394 1395 1396
f 1397 1400 1399 1398
f 1393 1397 1398 1394
f 1396 1395 1399 1400
f 1393 1396 1400 1397
f 1394 1398 1399 1395

o box_12_16
f 1401 1402 1403 1404
f 1405 1408 1407 1406
f 1401 1405 1406 1402
f 1404 1403 1407 1408
f 1401 1404 1408 1405
f 1402 1406 1407 1403

o box_13_0
f 1409 1410 1411 1412
f 1413 1416 1415 1414
f 1409 1413 1414 1410
f 1412 1411 1415 1416
f 1409 1412 1416 1413
f 1410 1414 1415 1411

o box_13_2
f 1417 1418 1419 1420
f 1421 1424 1423 1422
f 1417 1421 1422 1418
f 1420 1419 1423 1424
f 1417 1420 1424 1421
f 1418 1422 1423 1419

o box_13_3
f 1425 1426 1427 1428
f 1429 1432 1431 1430
f 1425 1429 1430 1426
f 1428 1427 1431 1432
f 1425 1428 1432 1429
f 1426 1430 1431 1427

o box_13_4
f 1433 1434 1435 1436
f 1437 1440 1439 1438
f 1433 1437 1438 1434
f 1436 1435 1439 1440
f 1433 1436 1440 1437
f 1434 1438 1439 1435

o box_13_5
f 1441 1442 1443 1444
f 1445 1448 1447 1446
f 1441 1445 1446 1442
f 1444 1443 1447 1448
f 1441 1444 1448 1445
f 1442 1446 1447 1443

o box_13_6
f 1449 1450 1451 1452
f 1453 1456 1455 1454
f 1449 1453 1454 1450
f 1452 1451 1455 1456
f 1449 1452 1456 1453
f 1450 1454 1455 1451

o box_13_7
f 1457 1458 1459 1460
f 1461 1464 1463 1462
f 1457 1461 1462 1458
f 1460 1459 1463 1464
f 1457 1460 1464 1461
f 1458 1462 1463 1459

o box_13_8
f 1465 1466 1467 1468
f 1469 1472 1471 1470
f 1465 1469 1470 1466
f 1468 1467 1471 1472
f 1465 1468 1472 1469
f 1466 1470 1471 1467

o box_13_10
f 1473 1474 1475 1476
f 1477 1480 1479 1478
f 1473 1477 1478 1474
f 1476 1475 1479 1480
f 1473 1476 1480 1477
f 1474 1478 1479 1475

o box_13_11
f 1481 1482 1483 1484
f 1485 1488 1487 1486
f 1481 1485 1486 1482
f 1484 1483 1487 1488
f 1481 1484 1488 1485
f 1482 1486 1487 1483

o box_13_12
f 1489 1490 1491 1492
f 1493 1496 1495 1494
f 1489 1493 1494 1490
f 1492 1491 1495 1496
f 1489 1492 1496 1493
f 1490 1494 1495 1491

o box_13_13
f 1497 1498 1499 1500
f 1501 1504 1503 1502
f 1497 1501 1502 1498
f 1500 1499 1503 1504
f 1497 1500 1504 1501
f 1498 1502 1503 1499

o box_13_14
f 1505 1506 1507 1508
f 1509 1512 1511 1510
f 1505 1509 1510 1506
f 1508 1507 1511 1512
f 1505 1508 1512 1509
f 1506 1510 1511 1507

o box_13_15
f 1513 1514 1515 1516
f 1517 1520 1519 1518
f 1513 1517 1518 1514
f 1516 1515 1519 1520
f 1513 1516 1520 1517
f 1514 1518 1519 1515

o box_13_16
f 1521 1522 1523 1524
f 1525 1528 1527 1526
f 1521 1525 1526 1522
f 1524 1523 1527 1528
f 1521 1524 1528 1525
f 1522 1526 1527 1523

o box_14_0
f 1529 1530 1531 1532
f 1533 1536 1535 1534
f 1529 1533 1534 1530
f 1532 1531 1535 1536
f 1529 1532 1536 1533
f 1530 1534 1535 1531

o box_14_1
f 1537 1538 1539 1540
f 1541 1544 1543 1542
f 1537 1541 1542 1538
f 1540 1539 1543 1544
f 1537 1540 1544 1541
f 1538 1542 1543 1539

o box_14_2
f 1545 1546 1547 1548
f 1549 1552 1551 1550
f 1545 1549 1550 1546
f 1548 1547 1551 1552
f 1545 1548 1552 1549
f 1546 1550 1551 1547

o box_14_3
f 1553 1554 1555 1556
f 1557 1560 1559 1558
f 1553 1557 1558 1554
f 1556 1555 1559 1560
f 1553 1556 1560 1557
f 1554 1558 1559 1555

o box_14_4
f 1561 1562 1563 1564
f 1565 1568 1567 1566
f 1561 1565 1566 1562
f 1564 1563 1567 1568
f 1561 1564 1568 1565
f 1562 1566 1567 1563

o box_14_6
f 1569 1570 1571 1572
f 1573 1576 1575 1574
f 1569 1573 1574 1570
f 1572 1571 1575 1576
f 1569 1572 1576 1573
f 1570 1574 1575 1571

o box_14_7
f 1577 1578 1579 1580
f 1581 1584 1583 1582
f 1577 1581 1582 1578
f 1580 1579 1583 1584
f 1577 1580 1584 1581
f 1578 1582 1583 1579

o box_14_10
f 1585 1586 1587 1588
f 1589 1592 1591 1590
f 1585 1589 1590 1586
f 1588 1587 1591 1592
f 1585 1588 1592 1589
f 1586 1590 1591 1587

o box_14_11
f 1593 1594 1595 1596
f 1597 1600 1599 1598
f 1593 1597 1598 1594
f 1596 1595 1599 1600
f 1593 1596 1600 1597
f 1594 1598 1599 1595

o box_14_13
f 1601 1602 1603 1604
f 1605 1608 1607 1606
f 1601 1605 1606 1602
f 1604 1603 1607 1608
f 1601 1604 1608 1605
f 1602 1606 1607 1603

o box_14_14
f 1609 1610 1611 1612
f 1613 1616 1615 1614
f 1609 1613 1614 1610
f 1612 1611 1615 1616
f 1609 1612 1616 1613
f 1610 1614 1615 1611

o box_14_15
f 1617 1618 1619 1620
f 1621 1624 1623 1622
f 1617 1621 1622 1618
f 1620 1619 1623 1624
f 1617 1620 1624 1621
f 1618 1622 1623 1619

o box_14_16
f 1625 1626 1627 1628
f 1629 1632 1631 1630
f 1625 1629 1630 1626
f 1628 1627 1631 1632
f 1625 1628 1632 1629
f 1626 1630 1631 1627

o box_15_0
f 1633 1634 1635 1636
f 1637 1640 1639 1638
f 1633 1637 1638 1634
f 1636 1635 1639 1640
f 1633 1636 1640 1637
f 1634 1638 1639 1635

o box_15_2
f 1641 1642 1643 1644
f 1645 1648 1647 1646
f 1641 1645 1646 1642
f 1644 1643 1647 1648
f 1641 1644 1648 1645
f 1642 1646 1647 1643

o box_15_3
f 1649 1650 1651 1652
f 1653 1656 1655 1654
f 1649 1653 1654 1650
f 1652 1651 1655 1656
f 1649 1652 1656 1653
f 1650 1654 1655 1651

o box_15_4
f 1657 1658 1659 1660
f 1661 1664 1663 1662
f 1657 1661 1662 1658
f 1660 1659 1663 1664
f 1657 1660 1664 1661
f 1658 1662 1663 1659

o box_15_5
f 1665 1666 1667 1668
f 1669 1672 1671 1670
f 1665 1669 1670 1666
f 1668 1667 1671 1672
f 1665 1668 1672 1669
f 1666 1670 1671 1667

o box_15_6
f 1673 1674 1675 1676
f 1677 1680 1679 1678
f 1673 1677 1678 1674
f 1676 1675 1679 1680
f 1673 1676 1680 1677
f 1674 1678 1679 1675

o box_15_7
f 1681 1682 1683 1684
f 1685 1688 1687 1686
f 1681 1685 1686 1682
f 1684 1683 1687 1688
f 1681 1684 1688 1685
f 1682 1686 1687 1683

o box_15_10
f 1689 1690 1691 1692
f 1693 1696 1695 1694
f 1689 1693 1694 1690
f 1692 1691 1695 1696
f 1689 1692 1696 1693
f 1690 1694 1695 1691

o box_15_11
f 1697 1698 1699 1700
f 1701 1704 1703 1702
f 1697 1701 1702 1698
f 1700 1699 1703 1704
f 1697 1700 1704 1701
f 1698 1702 1703 1699

o box_15_12
f 1705 1706 1707 1708
f 1709 1712 1711 1710
f 1705 1709 1710 1706
f 1708 1707 1711 1712
f 1705 1708 1712 1709
f 1706 1710 1711 1707

o box_15_13
f 1713 1714 1715 1716
f 1717 1720 1719 1718
f 1713 1717 1718 1714
f 1716 1715 1719 1720
f 1713 1716 1720 1717
f 1714 1718 1719 1715

o box_15_14
f 1721 1722 1723 1724
f 1725 1728 1727 1726
f 1721 1725 1726 1722
f 1724 1723 1727 1728
f 1721 1724 1728 1725
f 1722 1726 1727 1723

o box_15_15
f 1729 1730 1731 1732
f 1733 1736 1735 1734
f 1729 1733 1734 1730
f 1732 1731 1735 1736
f 1729 1732 1736 1733
f 1730 1734 1735 1731

o box_15_16
f 1737 1738 1739 1740
f 1741 1744 1743 1742
f 1737 1741 1742 1738
f 1740 1739 1743 1744
f 1737 1740 1744 1741
f 1738 1742 1743 1739

o box_16_0
f 1745 1746 1747 1748
f 1749 1752 1751 1750
f 1745 1749 1750 1746
f 1748 1747 1751 1752
f 1745 1748 1752 1749
f 1746 1750 1751 1747

o box_16_1
f 1753 1754 1755 1756
f 1757 1760 1759 1758
f 1753 1757 1758 1754
f 1756 1755 1759 1760
f 1753 1756 1760 1757
f 1754 1758 1759 1755

o box_16_2
f 1761 1762 1763 1764
f 1765 1768 1767 1766
f 1761 1765 1766 1762
f 1764 1763 1767 1768
f 1761 1764 1768 1765
f 1762 1766 1767 1763

o box_16_3
f 1769 1770 1771 1772
f 1773 1776 1775 1774
f 1769 1773 1774 1770
f 1772 1771 1775 1776
f 1769 1772 1776 1773
f 1770 1774 1775 1771

o box_16_4
f 1777 1778 1779 1780
f 1781 1784 1783 1782
f 1777 1781 1782 1778
f 1780 1779 1783 1784
f 1777 1780 1784 1781
f 1778 1782 1783 1779

o box_16_5
f 1785 1786 1787 1788
f 1789 1792 1791 1790
f 1785 1789 1790 1786
f 1788 1787 1791 1792
f 1785 1788 1792 1789
f 1786 1790 1791 1787

o box_16_6
f 1793 1794 1795 1796
f 1797 1800 1799 1798
f 1793 1797 1798 1794
f 1796 1795 1799 1800
f 1793 1796 1800 1797
f 1794 1798 1799 1795

o box_16_7
f 1801 1802 1803 1804
f 1805 1808 1807 1806
f 1801 1805 1806 1802
f 1804 1803 1807 1808
f 1801 1804 1808 1805
f 1802 1806 1807 1803

o box_16_8
f 1809 1810 1811 1812
f 1813 1816 1815 1814
f 1809 1813 1814 1810
f 1812 1811 1815 1816
f 1809 1812 1816 1813
f 1810 1814 1815 1811

o box_16_9
f 1817 1818 1819 1820
f 1821 1824 1823 1822
f 1817 1821 1822 1818
f 1820 1819 1823 1824
f 1817 1820 1824 1821
f 1818 1822 1823 1819

o box_16_11
f 1825 1826 1827 1828
f 1829 1832 1831 1830
f 1825 1829 1830 1826
f 1828 1827 1831 1832
f 1825 1828 1832 1829
f 1826 1830 1831 1827

o box_16_12
f 1833 1834 1835 1836
f 1837 1840 1839 1838
f 1833 1837 1838 1834
f 1836 1835 1839 1840
f 1833 1836 1840 1837
f 1834 1838 1839 1835

o box_16_15
f 1841 1842 1843 1844
f 1845 1848 1847 1846
f 1841 1845 1846 1842
f 1844 1843 1847 1848
f 1841 1844 1848 1845
f 1842 1846 1847 1843

o box_16_16
f 1849 1850 1851 1852
f 1853 1856 1855 1854
f 1849 1853 1854 1850
f 1852 1851 1855 1856
f 1849 1852 1856 1853
f 1850 1854 1855 1851

