# Blender 4.3.2
# www.blender.org

v 10 10 20
v 10 0 20
v 10 10 10
v 10 0 10
v 20 10 20
v 20 0 20
v 20 10 10
v 20 0 10

v -10 30 -20
v -10 0 -20
v -10 30 -10
v -10 0 -10
v -20 30 -20
v -20 0 -20
v -20 30 -10
v -20 0 -10

v 12 17 -16
v 12 0 -16
v 12 17 -9
v 12 0 -9
v 25 17 -16
v 25 0 -16
v 25 17 -9
v 25 0 -9

o B_1
f 1 5 7 3
f 4 3 7 8
f 8 7 5 6
f 6 2 4 8
f 2 1 3 4
f 6 5 1 2

o B_2
f 9 13 15 11
f 12 11 15 16
f 16 15 13 14
f 14 10 12 16
f 10 9 11 12
f 14 13 9 10

o B_3
f 19 23 21 17
f 24 23 19 20
f 22 21 23 24
f 24 20 18 22
f 20 19 17 18
f 18 17 21 22
