# Three-section rotated mass model
# Units: meters
# Section 1: 30 x 30 x 20 m, rotation 0 degrees
# Section 2: side = 30/sqrt(2) m, height 20 m, rotation 45 degrees
# Section 3: side = 15 m, height 20 m, rotation 90 degrees
# Centered on origin; Y axis is vertical

v -15.000000 0.000000 -15.000000
v 15.000000 0.000000 -15.000000
v 15.000000 0.000000 15.000000
v -15.000000 0.000000 15.000000
v -15.000000 20.000000 -15.000000
v 15.000000 20.000000 -15.000000
v 15.000000 20.000000 15.000000
v -15.000000 20.000000 15.000000
v -0.000000 20.000000 -15.000000
v 15.000000 20.000000 -0.000000
v 0.000000 20.000000 15.000000
v -15.000000 20.000000 0.000000
v -0.000000 40.000000 -15.000000
v 15.000000 40.000000 -0.000000
v 0.000000 40.000000 15.000000
v -15.000000 40.000000 0.000000
v 7.500000 40.000000 -7.500000
v 7.500000 40.000000 7.500000
v -7.500000 40.000000 7.500000
v -7.500000 40.000000 -7.500000
v 7.500000 60.000000 -7.500000
v 7.500000 60.000000 7.500000
v -7.500000 60.000000 7.500000
v -7.500000 60.000000 -7.500000

o Section_1_30x30x20m
f 1 2 3 4
f 8 7 6 5
f 5 6 2 1
f 6 7 3 2
f 7 8 4 3
f 8 5 1 4

o Section_2_rotated_45deg
f 9 10 11 12
f 16 15 14 13
f 13 14 10 9
f 14 15 11 10
f 15 16 12 11
f 16 13 9 12

o Section_3_rotated_90deg
f 17 18 19 20
f 24 23 22 21
f 21 22 18 17
f 22 23 19 18
f 23 24 20 19
f 24 21 17 20
